<?xml version="1.0" encoding="UTF-8" standalone="no"?>
<!-- Created with Inkscape (http://www.inkscape.org/) -->

<svg
   version="1.1"
   id="svg2"
   width="303.84"
   height="129.76001"
   viewBox="0 0 303.84 129.76001"
   xmlns="http://www.w3.org/2000/svg"
   xmlns:svg="http://www.w3.org/2000/svg">
  <defs
     id="defs6">
    <clipPath
       clipPathUnits="userSpaceOnUse"
       id="clipPath26">
      <path
         d="M 0,47.52 V 1075.2 H 793.76001 V 47.52 Z"
         clip-rule="evenodd"
         id="path24" />
    </clipPath>
    <clipPath
       clipPathUnits="userSpaceOnUse"
       id="clipPath78">
      <path
         d="M 0,47.52 V 1075.2 H 793.76001 V 47.52 Z"
         clip-rule="evenodd"
         id="path76" />
    </clipPath>
    <clipPath
       clipPathUnits="userSpaceOnUse"
       id="clipPath126">
      <path
         d="M 0,47.52 V 1075.2 H 793.76001 V 47.52 Z"
         clip-rule="evenodd"
         id="path124" />
    </clipPath>
    <clipPath
       clipPathUnits="userSpaceOnUse"
       id="clipPath174">
      <path
         d="M 0,47.52 V 1075.2 H 793.76001 V 47.52 Z"
         clip-rule="evenodd"
         id="path172" />
    </clipPath>
    <clipPath
       clipPathUnits="userSpaceOnUse"
       id="clipPath206">
      <path
         d="M 0,47.52 V 1075.2 H 793.76001 V 47.52 Z"
         clip-rule="evenodd"
         id="path204" />
    </clipPath>
    <clipPath
       clipPathUnits="userSpaceOnUse"
       id="clipPath246">
      <path
         d="M 0,47.52 V 1075.2 H 793.76001 V 47.52 Z"
         clip-rule="evenodd"
         id="path244" />
    </clipPath>
    <clipPath
       clipPathUnits="userSpaceOnUse"
       id="clipPath282">
      <path
         d="M 0,47.52 V 1075.2 H 793.76001 V 47.52 Z"
         clip-rule="evenodd"
         id="path280" />
    </clipPath>
    <clipPath
       clipPathUnits="userSpaceOnUse"
       id="clipPath326">
      <path
         d="M 0,47.52 V 1075.2 H 793.76001 V 47.52 Z"
         clip-rule="evenodd"
         id="path324" />
    </clipPath>
    <clipPath
       clipPathUnits="userSpaceOnUse"
       id="clipPath754">
      <path
         d="M 0,47.52 V 1075.2 H 793.76001 V 47.52 Z"
         clip-rule="evenodd"
         id="path752" />
    </clipPath>
  </defs>
  <g
     id="g10"
     transform="translate(-78.240005,-117.44001)">
    <g
       id="g12">
      <path
         d="m 211.67999,121.44 h 55.36002 v 19.04 h -55.36002 z"
         style="fill:#ccccff;fill-opacity:1;fill-rule:nonzero;stroke:none"
         id="path14" />
    </g>
    <g
       id="g16">
      <path
         d="m 211.67999,140.32001 h 55.36002 V 121.44 h -55.36002 z"
         style="fill:none;stroke:#000000;stroke-width:0.64;stroke-linecap:butt;stroke-linejoin:miter;stroke-miterlimit:10;stroke-dasharray:none;stroke-opacity:1"
         id="path18" />
    </g>
    <g
       id="g20">
      <g
         id="g22"
         clip-path="url(#clipPath26)">
        <g
           id="g28"
           transform="translate(222.72,132.96001)">
          <path
             d="m 0,0 0.48,1.6 h 1.6 L -0.48,-5.92 H -2.24 L -4.96,1.6 h 1.6 L -2.88,0 Z M -0.48,-1.28 H -2.4 l 0.96,-2.88 z"
             style="fill:#000000;fill-opacity:1;fill-rule:nonzero;stroke:none"
             id="path30" />
        </g>
        <g
           id="g32"
           transform="translate(225.75999,129.11999)">
          <path
             d="M 0,0 V 5.44 H 0.8 V 2.4 C 0.96,1.28 1.44,0.48 2.4,0.48 c 0.64,0 0.96,0.48 0.96,1.12 v 3.84 h 0.8 V 1.28 c 0,-0.96 -0.64,-1.44 -1.6,-1.44 -0.8,0 -1.28,0.32 -1.76,0.96 V 0 Z"
             style="fill:#000000;fill-opacity:1;fill-rule:nonzero;stroke:none"
             id="path34" />
        </g>
        <g
           id="g36"
           transform="translate(233.44,129.11999)">
          <path
             d="m 0,0 h -0.96 v -1.44 h -0.8 V 0 H -2.4 v 0.64 h 0.64 V 4.8 c 0,0.48 0.32,0.8 0.96,0.8 0.32,0 0.48,-0.16 0.8,-0.16 L 0,4.8 C -0.16,4.96 -0.32,4.96 -0.48,4.96 -0.8,4.96 -0.96,4.8 -0.96,4.48 V 0.64 H 0 Z"
             style="fill:#000000;fill-opacity:1;fill-rule:nonzero;stroke:none"
             id="path38" />
        </g>
        <g
           id="g40"
           transform="translate(235.2,129.11999)">
          <path
             d="M 0,0 H -0.8 V 5.44 H 0 Z m -0.16,-2.08 h -0.8 v 1.12 h 0.8 z"
             style="fill:#000000;fill-opacity:1;fill-rule:nonzero;stroke:none"
             id="path42" />
        </g>
        <g
           id="g44"
           transform="translate(236.64,136.8)">
          <path
             d="m 0,0 h 0.64 v -2.88 c 0.48,0.48 0.96,0.8 1.76,0.8 1.28,0 2.08,-1.12 2.08,-2.88 0,-1.76 -0.64,-2.88 -2.08,-2.88 -0.8,0 -1.44,0.32 -1.92,0.96 v -0.8 h -0.64 z m 2.08,-7.04 c 1.12,0 1.76,0.8 1.76,2.08 0,1.28 -0.64,2.08 -1.76,2.08 -0.8,0 -1.44,-0.8 -1.44,-2.08 0,-1.28 0.64,-2.08 1.6,-2.08 z"
             style="fill:#000000;fill-opacity:1;fill-rule:nonzero;stroke:none"
             id="path46" />
        </g>
        <g
           id="g48"
           transform="translate(247.03999,134.08)">
          <path
             d="m 0,0 c 0,0 0,0 -0.16,0 -0.32,0 -0.48,-0.16 -0.48,-0.48 v -3.2 c 0,-0.96 -0.64,-1.44 -1.92,-1.44 -0.8,0 -1.44,0.16 -1.76,0.64 -0.32,0.32 -0.32,0.48 -0.32,1.12 h 0.8 c 0,-0.64 0.48,-0.96 1.28,-0.96 0.8,0 1.12,0.32 1.12,0.8 v 0.16 c 0,0.48 -0.16,0.64 -0.8,0.64 -1.28,0.16 -1.44,0.16 -1.76,0.32 -0.64,0.32 -0.96,0.8 -0.96,1.44 0,0.96 0.64,1.6 1.76,1.6 0.64,0 1.28,-0.32 1.92,-0.8 0,0.48 0.32,0.8 0.8,0.8 0.16,0 0.32,-0.16 0.48,-0.16 z m -1.44,-1.28 c 0,0.32 0,0.48 -0.32,0.8 -0.32,0.32 -0.8,0.48 -1.28,0.48 -0.64,0 -1.12,-0.32 -1.12,-0.96 0,-0.48 0.48,-0.8 1.44,-0.96 0.8,-0.16 1.12,-0.16 1.28,-0.32 z"
             style="fill:#000000;fill-opacity:1;fill-rule:nonzero;stroke:none"
             id="path50" />
        </g>
        <g
           id="g52"
           transform="translate(251.84,130.56)">
          <path
             d="M 0,0 C 0,-0.96 -0.64,-1.6 -1.92,-1.6 -3.2,-1.6 -4,-0.96 -4,0 c 0,0.8 0.48,1.28 1.76,1.6 l 0.8,0.16 c 0.64,0.16 0.8,0.32 0.8,0.8 0,0.48 -0.48,0.8 -1.28,0.8 C -2.4,3.36 -2.88,3.2 -3.04,3.04 -3.2,2.88 -3.2,2.72 -3.2,2.24 H -4 c 0,1.28 0.64,1.92 2.08,1.92 1.44,0 2.08,-0.64 2.08,-1.76 0,-0.8 -0.32,-1.28 -1.44,-1.44 L -2.08,0.8 C -2.88,0.64 -3.2,0.32 -3.2,0 c 0,-0.48 0.48,-0.8 1.28,-0.8 0.64,0 1.12,0.32 1.12,0.8 z"
             style="fill:#000000;fill-opacity:1;fill-rule:nonzero;stroke:none"
             id="path54" />
        </g>
        <g
           id="g56"
           transform="translate(255.2,129.11999)">
          <path
             d="M 0,0 H -0.8 V -1.44 H -1.6 V 0 h -0.8 v 0.64 h 0.8 V 4.8 c 0,0.48 0.32,0.8 0.96,0.8 0.16,0 0.32,-0.16 0.64,-0.16 L 0,4.8 C -0.16,4.96 -0.16,4.96 -0.32,4.96 -0.8,4.96 -0.8,4.8 -0.8,4.48 V 0.64 H 0 Z"
             style="fill:#000000;fill-opacity:1;fill-rule:nonzero;stroke:none"
             id="path58" />
        </g>
        <g
           id="g60"
           transform="translate(258.39999,128.96001)">
          <path
             d="m 0,0 c -1.6,0 -2.4,1.12 -2.4,2.88 0,1.76 0.8,2.88 2.4,2.88 1.44,0 2.4,-1.12 2.4,-2.88 C 2.4,1.12 1.6,0 0,0 Z M 0,0.8 C 0.96,0.8 1.6,1.6 1.6,2.88 1.6,4.16 0.96,4.96 0,4.96 -1.12,4.96 -1.6,4.16 -1.6,2.88 -1.6,1.6 -1.12,0.8 0,0.8 Z"
             style="fill:#000000;fill-opacity:1;fill-rule:nonzero;stroke:none"
             id="path62" />
        </g>
      </g>
    </g>
    <g
       id="g64">
      <path
         d="m 138.72,157.28 h 56 v 19.04001 h -56 z"
         style="fill:#f2f2ff;fill-opacity:1;fill-rule:nonzero;stroke:none"
         id="path66" />
    </g>
    <g
       id="g68">
      <path
         d="m 138.88,176.16 h 55.68 v -18.88 h -55.68 z"
         style="fill:none;stroke:#000000;stroke-width:0.64;stroke-linecap:butt;stroke-linejoin:miter;stroke-miterlimit:10;stroke-dasharray:none;stroke-opacity:1"
         id="path70" />
    </g>
    <g
       id="g72">
      <g
         id="g74"
         clip-path="url(#clipPath78)">
        <g
           id="g80"
           transform="translate(145.60001,170.39999)">
          <path
             d="M 0,0 H 3.36 C 4.16,0 4.8,-0.16 5.28,-0.48 5.6,-0.96 5.92,-1.6 5.92,-2.08 5.92,-2.88 5.6,-3.52 4.8,-4 5.44,-4.48 5.76,-4.8 5.76,-5.6 5.76,-6.08 5.44,-6.72 5.12,-7.04 4.64,-7.36 4.16,-7.52 3.36,-7.52 H 0 Z M 1.44,-6.24 H 3.2 c 0.8,0 1.12,0.32 1.12,0.8 0,0.64 -0.32,0.96 -1.12,0.96 H 1.44 Z m 0,3.04 h 1.92 c 0.8,0 1.12,0.32 1.12,0.96 0,0.64 -0.32,0.96 -1.12,0.96 H 1.44 Z"
             style="fill:#000000;fill-opacity:1;fill-rule:nonzero;stroke:none"
             id="path82" />
        </g>
        <g
           id="g84"
           transform="translate(157.44,168)">
          <path
             d="M 0,0 C 0,-0.8 -0.16,-1.28 -0.32,-1.76 -0.64,-2.72 -1.44,-3.2 -2.4,-3.2 c -1.6,0 -2.56,1.12 -2.56,3.04 0,1.6 0.96,2.72 2.56,2.72 1.12,0 2.08,-0.64 2.24,-1.92 h -0.8 C -1.28,1.44 -1.76,1.76 -2.4,1.76 -3.04,1.76 -3.36,1.44 -3.68,1.12 -4,0.8 -4,0.48 -4,0 Z m -4,-0.64 c 0,-1.12 0.64,-1.76 1.6,-1.76 0.8,0 1.44,0.8 1.44,1.76 0,0 0,0 0,0 z"
             style="fill:#000000;fill-opacity:1;fill-rule:nonzero;stroke:none"
             id="path86" />
        </g>
        <g
           id="g88">
          <path
             d="m 160.48,170.39999 2.08,-5.43998 h -0.95999 L 160,169.44 l -1.44,-4.47999 h -0.95999 l 1.91999,5.43998 z"
             style="fill:#000000;fill-opacity:1;fill-rule:nonzero;stroke:none"
             id="path90" />
        </g>
        <g
           id="g92"
           transform="translate(167.67999,168)">
          <path
             d="M 0,0 C 0,-0.8 0,-1.28 -0.16,-1.76 -0.48,-2.72 -1.28,-3.2 -2.4,-3.2 c -1.44,0 -2.4,1.12 -2.4,3.04 0,1.6 0.96,2.72 2.4,2.72 1.28,0 2.08,-0.64 2.4,-1.92 H -0.96 C -1.12,1.44 -1.6,1.76 -2.24,1.76 -2.88,1.76 -3.36,1.44 -3.68,1.12 -3.84,0.8 -3.84,0.48 -3.84,0 Z m -3.84,-0.64 c 0,-1.12 0.64,-1.76 1.44,-1.76 0.96,0 1.6,0.8 1.6,1.76 0,0 0,0 0,0 z"
             style="fill:#000000;fill-opacity:1;fill-rule:nonzero;stroke:none"
             id="path94" />
        </g>
        <g
           id="g96"
           transform="translate(168.8,164.96001)">
          <path
             d="m 0,0 0.16,5.44 h 0.8 V 2.56 C 0.96,1.76 1.12,1.28 1.6,0.96 1.92,0.8 2.08,0.8 2.72,0.64 v -0.8 c -0.16,0 -0.32,0 -0.48,0 -0.48,0 -0.96,0.32 -1.44,1.12 L 0.8,0 Z"
             style="fill:#000000;fill-opacity:1;fill-rule:nonzero;stroke:none"
             id="path98" />
        </g>
        <g
           id="g100"
           transform="translate(176.96001,169.92)">
          <path
             d="m 0,0 c 0,0 -0.16,0 -0.16,0 -0.32,0 -0.48,-0.16 -0.48,-0.48 v -3.2 c 0,-0.96 -0.64,-1.44 -1.92,-1.44 -0.8,0 -1.44,0.16 -1.76,0.64 -0.32,0.32 -0.32,0.64 -0.48,1.12 H -4 c 0.16,-0.64 0.48,-0.96 1.28,-0.96 0.8,0 1.28,0.32 1.28,0.8 v 0.16 c 0,0.48 -0.16,0.64 -0.96,0.64 -1.12,0.16 -1.28,0.16 -1.76,0.32 -0.48,0.32 -0.8,0.8 -0.8,1.44 0,0.96 0.64,1.6 1.76,1.6 0.64,0 1.28,-0.32 1.76,-0.8 0.16,0.48 0.32,0.8 0.8,0.8 0.32,0 0.32,0 0.64,-0.16 z m -1.44,-1.28 c 0,0.32 0,0.48 -0.32,0.8 -0.32,0.32 -0.8,0.48 -1.28,0.48 -0.64,0 -1.12,-0.32 -1.12,-0.96 0,-0.48 0.48,-0.8 1.28,-0.96 0.96,-0.16 1.12,-0.16 1.44,-0.32 z"
             style="fill:#000000;fill-opacity:1;fill-rule:nonzero;stroke:none"
             id="path102" />
        </g>
        <g
           id="g104"
           transform="translate(181.60001,164.96001)">
          <path
             d="M 0,0 V 0.8 C -0.48,0.16 -0.96,-0.16 -1.76,-0.16 -3.2,-0.16 -4,0.96 -4,2.72 c 0,0.96 0.16,1.6 0.64,2.08 0.32,0.48 0.96,0.8 1.6,0.8 0.64,0 1.12,-0.32 1.76,-0.96 L 0,4.96 C 0,5.6 -0.16,6.08 -0.32,6.4 -0.64,6.88 -1.12,7.04 -1.6,7.04 -2.08,7.04 -2.4,6.88 -2.72,6.72 -2.88,6.56 -3.04,6.4 -3.04,6.08 h -0.8 c 0.16,1.12 0.8,1.6 2.08,1.6 0.96,0 1.6,-0.32 2.08,-0.64 C 0.64,6.56 0.8,5.76 0.8,4.48 V 0 Z M -1.6,0.64 C -0.64,0.64 0,1.44 0,2.72 0,4 -0.64,4.8 -1.6,4.8 -2.56,4.8 -3.2,4 -3.2,2.72 c 0,-1.28 0.64,-2.08 1.6,-2.08 z"
             style="fill:#000000;fill-opacity:1;fill-rule:nonzero;stroke:none"
             id="path106" />
        </g>
        <g
           id="g108"
           transform="translate(188.32001,168)">
          <path
             d="M 0,0 C 0,-0.8 0,-1.28 -0.16,-1.76 -0.48,-2.72 -1.44,-3.2 -2.4,-3.2 c -1.44,0 -2.4,1.12 -2.4,3.04 0,1.6 0.8,2.72 2.4,2.72 1.28,0 2.08,-0.64 2.24,-1.92 h -0.8 C -1.12,1.44 -1.76,1.76 -2.4,1.76 -2.88,1.76 -3.36,1.44 -3.68,1.12 -3.84,0.8 -4,0.48 -4,0 Z m -4,-0.64 c 0.16,-1.12 0.8,-1.76 1.6,-1.76 0.8,0 1.44,0.8 1.44,1.76 0,0 0,0 0,0 z"
             style="fill:#000000;fill-opacity:1;fill-rule:nonzero;stroke:none"
             id="path110" />
        </g>
      </g>
    </g>
    <g
       id="g112">
      <path
         d="m 113.6,193.11999 h 54.88 V 212.16 H 113.6 Z"
         style="fill:#ccccff;fill-opacity:1;fill-rule:nonzero;stroke:none"
         id="path114" />
    </g>
    <g
       id="g116">
      <path
         d="m 113.76,212 h 54.72 v -18.88001 h -54.72 z"
         style="fill:none;stroke:#000000;stroke-width:0.64;stroke-linecap:butt;stroke-linejoin:miter;stroke-miterlimit:10;stroke-dasharray:none;stroke-opacity:1"
         id="path118" />
    </g>
    <g
       id="g120">
      <g
         id="g122"
         clip-path="url(#clipPath126)">
        <g
           id="g128"
           transform="translate(121.76,203.03999)">
          <path
             d="M 0,0 H 3.68 V -1.28 H 0 V -3.04 H 3.84 V -4.32 H -1.44 V 3.2 h 5.6 V 1.92 H 0 Z"
             style="fill:#000000;fill-opacity:1;fill-rule:nonzero;stroke:none"
             id="path130" />
        </g>
        <g
           id="g132"
           transform="translate(130.88,202.24)">
          <path
             d="M 0,0 C 0,-0.96 -0.64,-1.6 -1.92,-1.6 -3.2,-1.6 -4,-0.96 -4,0 c 0,0.8 0.48,1.28 1.76,1.6 l 0.8,0.16 c 0.64,0.16 0.8,0.32 0.8,0.8 0,0.48 -0.48,0.8 -1.28,0.8 C -2.4,3.36 -2.88,3.2 -3.04,3.04 -3.2,2.88 -3.2,2.72 -3.2,2.24 h -0.96 c 0.16,1.28 0.8,1.92 2.24,1.92 1.28,0 2.08,-0.64 2.08,-1.76 0,-0.8 -0.32,-1.12 -1.44,-1.44 L -2.08,0.8 C -2.88,0.64 -3.2,0.32 -3.2,0 c 0,-0.48 0.48,-0.8 1.28,-0.8 0.64,0 1.12,0.32 1.12,0.8 z"
             style="fill:#000000;fill-opacity:1;fill-rule:nonzero;stroke:none"
             id="path134" />
        </g>
        <g
           id="g136"
           transform="translate(132.32001,208.48)">
          <path
             d="m 0,0 h 0.64 v -2.88 c 0.48,0.48 0.96,0.8 1.76,0.8 1.28,0 2.08,-1.12 2.08,-2.88 0,-1.76 -0.64,-2.88 -2.08,-2.88 -0.8,0 -1.44,0.32 -1.92,0.96 v -0.8 h -0.64 z m 2.24,-7.04 c 0.96,0 1.6,0.8 1.6,2.08 0,1.28 -0.64,2.08 -1.6,2.08 -0.96,0 -1.6,-0.8 -1.6,-2.08 0,-1.28 0.64,-2.08 1.6,-2.08 z"
             style="fill:#000000;fill-opacity:1;fill-rule:nonzero;stroke:none"
             id="path138" />
        </g>
        <g
           id="g140"
           transform="translate(138.08,200.8)">
          <path
             d="M 0,0 0.16,5.44 H 0.8 V 2.56 C 0.8,1.76 1.12,1.28 1.44,0.96 1.76,0.8 2.08,0.8 2.56,0.8 v -0.96 c -0.16,0 -0.32,0 -0.32,0 -0.64,0 -0.96,0.32 -1.6,1.12 L 0.64,0 Z"
             style="fill:#000000;fill-opacity:1;fill-rule:nonzero;stroke:none"
             id="path142" />
        </g>
        <g
           id="g144"
           transform="translate(146.08,203.84)">
          <path
             d="M 0,0 C 0,-0.8 0,-1.28 -0.16,-1.76 -0.48,-2.72 -1.44,-3.2 -2.4,-3.2 c -1.44,0 -2.4,1.12 -2.4,3.04 0,1.6 0.8,2.72 2.4,2.72 1.28,0 2.08,-0.64 2.24,-1.76 h -0.8 C -1.12,1.44 -1.76,1.76 -2.4,1.76 -2.88,1.76 -3.36,1.6 -3.68,1.12 -3.84,0.8 -4,0.48 -4,0 Z m -4,-0.64 c 0.16,-1.12 0.8,-1.76 1.6,-1.76 0.8,0 1.44,0.8 1.44,1.76 0,0 0,0 0,0 z"
             style="fill:#000000;fill-opacity:1;fill-rule:nonzero;stroke:none"
             id="path146" />
        </g>
        <g
           id="g148"
           transform="translate(151.03999,202.24)">
          <path
             d="M 0,0 C 0,-0.96 -0.64,-1.6 -1.92,-1.6 -3.36,-1.6 -4,-0.96 -4,0 c 0,0.8 0.32,1.28 1.6,1.6 l 0.8,0.16 c 0.64,0.16 0.96,0.32 0.96,0.8 0,0.48 -0.48,0.8 -1.28,0.8 C -2.4,3.36 -2.88,3.2 -3.04,3.04 -3.2,2.88 -3.36,2.72 -3.36,2.24 h -0.8 c 0,1.28 0.64,1.92 2.08,1.92 1.44,0 2.24,-0.64 2.24,-1.76 0,-0.8 -0.48,-1.12 -1.44,-1.44 L -2.24,0.8 C -2.88,0.64 -3.2,0.32 -3.2,0 c 0,-0.48 0.48,-0.8 1.12,-0.8 0.8,0 1.12,0.32 1.12,0.8 z"
             style="fill:#000000;fill-opacity:1;fill-rule:nonzero;stroke:none"
             id="path150" />
        </g>
        <g
           id="g152"
           transform="translate(156.16,202.24)">
          <path
             d="M 0,0 C 0,-0.96 -0.64,-1.6 -1.92,-1.6 -3.2,-1.6 -4,-0.96 -4,0 c 0,0.8 0.48,1.28 1.6,1.6 l 0.96,0.16 c 0.64,0.16 0.8,0.32 0.8,0.8 0,0.48 -0.48,0.8 -1.28,0.8 C -2.4,3.36 -2.88,3.2 -3.04,3.04 -3.2,2.88 -3.2,2.72 -3.36,2.24 h -0.8 c 0.16,1.28 0.8,1.92 2.24,1.92 1.28,0 2.08,-0.64 2.08,-1.76 0,-0.8 -0.32,-1.12 -1.44,-1.44 L -2.08,0.8 C -2.88,0.64 -3.2,0.32 -3.2,0 c 0,-0.48 0.48,-0.8 1.28,-0.8 0.64,0 1.12,0.32 1.12,0.8 z"
             style="fill:#000000;fill-opacity:1;fill-rule:nonzero;stroke:none"
             id="path154" />
        </g>
        <g
           id="g156"
           transform="translate(159.67999,200.64)">
          <path
             d="m 0,0 c -1.44,0 -2.24,1.12 -2.24,2.88 0,1.76 0.8,2.88 2.4,2.88 C 1.6,5.76 2.4,4.64 2.4,2.88 2.4,1.12 1.76,0 0,0 Z m 0.16,0.8 c 0.96,0 1.6,0.8 1.6,2.08 0,1.28 -0.64,2.08 -1.6,2.08 -1.12,0 -1.76,-0.8 -1.76,-2.08 0,-1.28 0.64,-2.08 1.76,-2.08 z"
             style="fill:#000000;fill-opacity:1;fill-rule:nonzero;stroke:none"
             id="path158" />
        </g>
      </g>
    </g>
    <g
       id="g160">
      <path
         d="m 176.96001,193.11999 h 30.71998 V 212.16 h -30.71998 z"
         style="fill:#ccccff;fill-opacity:1;fill-rule:nonzero;stroke:none"
         id="path162" />
    </g>
    <g
       id="g164">
      <path
         d="m 177.11999,212 h 30.56 v -18.88001 h -30.56 z"
         style="fill:none;stroke:#000000;stroke-width:0.64;stroke-linecap:butt;stroke-linejoin:miter;stroke-miterlimit:10;stroke-dasharray:none;stroke-opacity:1"
         id="path166" />
    </g>
    <g
       id="g168">
      <g
         id="g170"
         clip-path="url(#clipPath174)">
        <g
           id="g176"
           transform="translate(185.11999,203.03999)">
          <path
             d="M 0,0 H 3.2 V -1.28 H 0 V -3.04 H 3.68 V -4.32 H -1.44 V 3.2 H 0 Z"
             style="fill:#000000;fill-opacity:1;fill-rule:nonzero;stroke:none"
             id="path178" />
        </g>
        <g
           id="g180"
           transform="translate(190.72,200.8)">
          <path
             d="M 0,0 H -0.8 V 5.44 H 0 Z m -0.16,-2.08 h -0.8 v 1.12 h 0.8 z"
             style="fill:#000000;fill-opacity:1;fill-rule:nonzero;stroke:none"
             id="path182" />
        </g>
        <g
           id="g184"
           transform="translate(196,200.8)">
          <path
             d="m 0,0 h -4 v 0.64 h 3.04 L -4.16,4.8 V 5.44 H 0.16 V 4.8 H -3.2 L 0,0.64 Z"
             style="fill:#000000;fill-opacity:1;fill-rule:nonzero;stroke:none"
             id="path186" />
        </g>
        <g
           id="g188"
           transform="translate(201.28,200.8)">
          <path
             d="m 0,0 h -4.16 v 0.64 h 3.04 L -4.32,4.8 V 5.44 H 0.16 V 4.8 H -3.2 L 0,0.64 Z"
             style="fill:#000000;fill-opacity:1;fill-rule:nonzero;stroke:none"
             id="path190" />
        </g>
      </g>
    </g>
    <g
       id="g192">
      <path
         d="m 240,157.28 h 47.35999 v 19.04001 H 240 Z"
         style="fill:#ccccff;fill-opacity:1;fill-rule:nonzero;stroke:none"
         id="path194" />
    </g>
    <g
       id="g196">
      <path
         d="m 240,176.16 h 47.20001 V 157.28 H 240 Z"
         style="fill:none;stroke:#000000;stroke-width:0.64;stroke-linecap:butt;stroke-linejoin:miter;stroke-miterlimit:10;stroke-dasharray:none;stroke-opacity:1"
         id="path198" />
    </g>
    <g
       id="g200">
      <g
         id="g202"
         clip-path="url(#clipPath206)">
        <g
           id="g208"
           transform="translate(252.8,165.28)">
          <path
             d="m 0,0 c 0,-0.64 -0.16,-1.12 -0.48,-1.44 -0.64,-0.8 -1.6,-1.12 -2.72,-1.12 -2.08,0 -3.36,1.44 -3.36,3.84 0,2.56 1.28,4 3.36,4 1.92,0 3.04,-0.96 3.2,-2.72 H -1.44 C -1.6,3.52 -2.24,4 -3.2,4 -4.32,4 -5.12,3.04 -5.12,1.44 c 0,-1.76 0.8,-2.72 2.08,-2.72 0.48,0 0.96,0.16 1.12,0.48 0.16,0.16 0.32,0.48 0.48,0.8 z"
             style="fill:#000000;fill-opacity:1;fill-rule:nonzero;stroke:none"
             id="path210" />
        </g>
        <g
           id="g212"
           transform="translate(254.08,162.88)">
          <path
             d="M 0,0 V 7.52 H 0.8 V 4.48 c 0,-1.12 0.64,-1.92 1.44,-1.92 0.32,0 0.64,0.16 0.8,0.32 0.16,0.16 0.32,0.32 0.32,0.8 v 3.84 h 0.8 V 3.36 C 4.16,2.4 3.52,1.92 2.56,1.92 1.76,1.92 1.28,2.08 0.8,2.72 V 0 Z"
             style="fill:#000000;fill-opacity:1;fill-rule:nonzero;stroke:none"
             id="path214" />
        </g>
        <g
           id="g216"
           transform="translate(264.32001,168)">
          <path
             d="M 0,0 C 0,-0.8 0,-1.28 -0.16,-1.76 -0.48,-2.72 -1.44,-3.2 -2.4,-3.2 c -1.44,0 -2.4,1.12 -2.4,3.04 0,1.6 0.8,2.72 2.4,2.72 1.28,0 2.08,-0.64 2.24,-1.92 h -0.8 C -1.28,1.44 -1.76,1.76 -2.4,1.76 -2.88,1.76 -3.36,1.44 -3.68,1.12 -3.84,0.8 -4,0.48 -4,0 Z m -4,-0.64 c 0.16,-1.12 0.8,-1.76 1.6,-1.76 0.8,0 1.44,0.8 1.44,1.76 0,0 0,0 0,0 z"
             style="fill:#000000;fill-opacity:1;fill-rule:nonzero;stroke:none"
             id="path218" />
        </g>
        <g
           id="g220"
           transform="translate(270.07999,168)">
          <path
             d="M 0,0 C 0,-0.8 0,-1.28 -0.16,-1.76 -0.64,-2.72 -1.44,-3.2 -2.4,-3.2 c -1.44,0 -2.56,1.12 -2.56,3.04 0,1.6 0.96,2.72 2.56,2.72 1.28,0 2.08,-0.64 2.24,-1.92 h -0.8 C -1.28,1.44 -1.76,1.76 -2.4,1.76 -2.88,1.76 -3.36,1.44 -3.68,1.12 -3.84,0.8 -4,0.48 -4,0 Z m -4,-0.64 c 0.16,-1.12 0.64,-1.76 1.6,-1.76 0.8,0 1.44,0.8 1.44,1.76 0,0 0,0 0,0 z"
             style="fill:#000000;fill-opacity:1;fill-rule:nonzero;stroke:none"
             id="path222" />
        </g>
        <g
           id="g224"
           transform="translate(275.04001,166.39999)">
          <path
             d="M 0,0 C -0.16,-0.96 -0.64,-1.6 -2.08,-1.6 -3.36,-1.6 -4,-0.96 -4,0 c 0,0.8 0.32,1.28 1.6,1.6 l 0.8,0.16 c 0.64,0.16 0.96,0.32 0.96,0.8 0,0.48 -0.48,0.8 -1.28,0.8 C -2.4,3.36 -2.88,3.2 -3.04,3.04 -3.2,2.88 -3.36,2.72 -3.36,2.24 h -0.8 c 0,1.28 0.64,1.92 2.08,1.92 1.44,0 2.24,-0.64 2.24,-1.76 0,-0.8 -0.48,-1.12 -1.44,-1.44 L -2.24,0.8 C -2.88,0.64 -3.2,0.32 -3.2,0 c 0,-0.48 0.48,-0.8 1.12,-0.8 0.8,0 1.12,0.32 1.12,0.8 z"
             style="fill:#000000;fill-opacity:1;fill-rule:nonzero;stroke:none"
             id="path226" />
        </g>
        <g
           id="g228"
           transform="translate(280.95999,168)">
          <path
             d="M 0,0 C 0,-0.8 0,-1.28 -0.16,-1.76 -0.48,-2.72 -1.44,-3.2 -2.4,-3.2 c -1.44,0 -2.4,1.12 -2.4,3.04 0,1.6 0.96,2.72 2.4,2.72 1.28,0 2.08,-0.64 2.4,-1.92 H -0.96 C -1.12,1.44 -1.6,1.76 -2.4,1.76 -2.88,1.76 -3.36,1.44 -3.68,1.12 -3.84,0.8 -4,0.48 -4,0 Z m -4,-0.64 c 0.16,-1.12 0.8,-1.76 1.6,-1.76 0.8,0 1.44,0.8 1.44,1.76 0,0 0,0 0,0 z"
             style="fill:#000000;fill-opacity:1;fill-rule:nonzero;stroke:none"
             id="path230" />
        </g>
      </g>
    </g>
    <g
       id="g232">
      <path
         d="m 216.16,193.11999 h 42.88001 V 212.16 H 216.16 Z"
         style="fill:#ccccff;fill-opacity:1;fill-rule:nonzero;stroke:none"
         id="path234" />
    </g>
    <g
       id="g236">
      <path
         d="M 216.32001,212 H 258.88 v -18.88001 h -42.55999 z"
         style="fill:none;stroke:#000000;stroke-width:0.64;stroke-linecap:butt;stroke-linejoin:miter;stroke-miterlimit:10;stroke-dasharray:none;stroke-opacity:1"
         id="path238" />
    </g>
    <g
       id="g240">
      <g
         id="g242"
         clip-path="url(#clipPath246)">
        <g
           id="g248"
           transform="translate(229.28,202.24)">
          <path
             d="m 0,0 h -3.04 v 1.28 h 1.76 c 0,0.32 -0.16,0.64 -0.32,0.96 -0.32,0.48 -0.96,0.64 -1.6,0.64 -1.28,0 -2.08,-1.12 -2.08,-2.56 0,-1.76 0.8,-2.72 2.08,-2.72 0.48,0 0.96,0.16 1.28,0.48 0.32,0.16 0.32,0.32 0.48,0.8 H 0 c -0.16,-1.6 -1.44,-2.56 -3.2,-2.56 -2.24,0 -3.52,1.6 -3.52,4 0,2.24 1.28,3.84 3.36,3.84 0.96,0 1.76,-0.32 2.24,-1.12 L -0.8,4 H 0 Z"
             style="fill:#000000;fill-opacity:1;fill-rule:nonzero;stroke:none"
             id="path250" />
        </g>
        <g
           id="g252"
           transform="translate(232.96001,200.64)">
          <path
             d="m 0,0 c -1.6,0 -2.4,1.12 -2.4,2.88 0,1.76 0.8,2.88 2.4,2.88 1.6,0 2.4,-1.12 2.4,-2.88 C 2.4,1.12 1.6,0 0,0 Z M 0,0.8 C 0.96,0.8 1.6,1.6 1.6,2.88 1.6,4.16 0.96,4.96 0,4.96 -0.96,4.96 -1.6,4.16 -1.6,2.88 -1.6,1.6 -0.96,0.8 0,0.8 Z"
             style="fill:#000000;fill-opacity:1;fill-rule:nonzero;stroke:none"
             id="path254" />
        </g>
        <g
           id="g256"
           transform="translate(240.8,206.08)">
          <path
             d="m 0,0 v -5.28 h -0.8 v 3.04 c 0,1.12 -0.64,1.92 -1.6,1.92 -0.64,0 -1.12,-0.48 -1.12,-1.12 v -3.84 h -0.8 v 4.16 c 0,0.96 0.64,1.44 1.76,1.44 0.8,0 1.28,-0.32 1.76,-0.96 V 0 Z"
             style="fill:#000000;fill-opacity:1;fill-rule:nonzero;stroke:none"
             id="path258" />
        </g>
        <g
           id="g260"
           transform="translate(246.72,198.72)">
          <path
             d="M 0,0 H -0.8 V 2.72 C -1.12,2.24 -1.76,1.92 -2.56,1.92 -4,1.92 -4.8,3.04 -4.8,4.8 c 0,1.76 0.8,2.88 2.24,2.88 0.8,0 1.44,-0.32 1.92,-0.96 V 7.36 H 0 Z m -2.4,2.72 c 0.96,0 1.6,0.8 1.6,2.08 0,1.28 -0.64,2.08 -1.6,2.08 C -3.36,6.88 -4,6.08 -4,4.8 -4,3.52 -3.36,2.72 -2.4,2.72 Z"
             style="fill:#000000;fill-opacity:1;fill-rule:nonzero;stroke:none"
             id="path262" />
        </g>
        <g
           id="g264"
           transform="translate(252.8,205.75999)">
          <path
             d="m 0,0 c -0.16,0 -0.16,0 -0.16,0 -0.32,0 -0.48,-0.16 -0.48,-0.48 v -3.2 c 0,-0.96 -0.64,-1.44 -2.08,-1.44 -0.8,0 -1.44,0.16 -1.76,0.64 -0.16,0.32 -0.32,0.64 -0.32,1.12 H -4 c 0.16,-0.64 0.48,-0.96 1.28,-0.96 0.8,0 1.28,0.32 1.28,0.8 v 0.16 c 0,0.48 -0.16,0.64 -0.96,0.64 -1.28,0.16 -1.44,0.16 -1.76,0.32 -0.48,0.32 -0.8,0.8 -0.8,1.44 0,0.96 0.64,1.6 1.6,1.6 0.8,0 1.28,-0.32 1.92,-0.64 0.16,0.32 0.32,0.64 0.8,0.64 0.16,0 0.32,0 0.64,-0.16 z m -1.44,-1.28 c 0,0.32 -0.16,0.48 -0.32,0.8 -0.32,0.32 -0.8,0.48 -1.28,0.48 -0.8,0 -1.12,-0.32 -1.12,-0.96 0,-0.48 0.32,-0.8 1.28,-0.96 0.96,-0.16 1.12,-0.16 1.44,-0.32 z"
             style="fill:#000000;fill-opacity:1;fill-rule:nonzero;stroke:none"
             id="path266" />
        </g>
      </g>
    </g>
    <g
       id="g268">
      <path
         d="M 267.51999,193.11999 H 311.84 V 212.16 h -44.32001 z"
         style="fill:#ccccff;fill-opacity:1;fill-rule:nonzero;stroke:none"
         id="path270" />
    </g>
    <g
       id="g272">
      <path
         d="M 267.51999,212 H 311.84 v -18.88001 h -44.32001 z"
         style="fill:none;stroke:#000000;stroke-width:0.64;stroke-linecap:butt;stroke-linejoin:miter;stroke-miterlimit:10;stroke-dasharray:none;stroke-opacity:1"
         id="path274" />
    </g>
    <g
       id="g276">
      <g
         id="g278"
         clip-path="url(#clipPath282)">
        <g
           id="g284"
           transform="translate(278.56,202.88)">
          <path
             d="M 0,0 V 3.36 H 1.44 V -4.16 H 0 v 2.88 h -3.04 v -2.88 h -1.44 v 7.52 h 1.44 V 0 Z"
             style="fill:#000000;fill-opacity:1;fill-rule:nonzero;stroke:none"
             id="path286" />
        </g>
        <g
           id="g288"
           transform="translate(286.23999,205.75999)">
          <path
             d="m 0,0 c -0.16,0 -0.16,0 -0.16,0 -0.32,0 -0.48,-0.16 -0.48,-0.48 v -3.2 c 0,-0.96 -0.64,-1.44 -1.92,-1.44 -0.8,0 -1.6,0.16 -1.92,0.64 -0.16,0.32 -0.32,0.64 -0.32,1.12 H -4 c 0.16,-0.64 0.48,-0.96 1.28,-0.96 0.8,0 1.28,0.32 1.28,0.8 v 0.16 c 0,0.48 -0.16,0.64 -0.96,0.64 -1.12,0.16 -1.44,0.16 -1.76,0.32 -0.48,0.32 -0.8,0.8 -0.8,1.44 0,0.96 0.64,1.6 1.76,1.6 0.64,0 1.12,-0.32 1.76,-0.64 0.16,0.32 0.32,0.64 0.8,0.64 0.16,0 0.32,0 0.64,-0.16 z m -1.44,-1.28 c 0,0.32 0,0.48 -0.32,0.8 -0.32,0.32 -0.8,0.48 -1.28,0.48 -0.8,0 -1.12,-0.32 -1.12,-0.96 0,-0.48 0.32,-0.8 1.28,-0.96 0.96,-0.16 1.12,-0.16 1.44,-0.32 z"
             style="fill:#000000;fill-opacity:1;fill-rule:nonzero;stroke:none"
             id="path290" />
        </g>
        <g
           id="g292">
          <path
             d="m 289.28,206.24 2.07999,-5.44 h -0.96 l -1.6,4.48 -1.44,-4.48 h -0.96 l 1.92002,5.44 z"
             style="fill:#000000;fill-opacity:1;fill-rule:nonzero;stroke:none"
             id="path294" />
        </g>
        <g
           id="g296"
           transform="translate(296.64001,205.75999)">
          <path
             d="m 0,0 c 0,0 -0.16,0 -0.16,0 -0.32,0 -0.48,-0.16 -0.48,-0.48 v -3.2 c 0,-0.96 -0.64,-1.44 -1.92,-1.44 -0.8,0 -1.44,0.16 -1.76,0.64 -0.32,0.32 -0.32,0.64 -0.32,1.12 h 0.8 c 0,-0.64 0.48,-0.96 1.28,-0.96 0.8,0 1.12,0.32 1.12,0.8 v 0.16 c 0,0.48 -0.16,0.64 -0.8,0.64 -1.28,0.16 -1.44,0.16 -1.76,0.32 -0.64,0.32 -0.96,0.8 -0.96,1.44 0,0.96 0.64,1.6 1.76,1.6 0.64,0 1.28,-0.32 1.92,-0.64 0,0.32 0.16,0.64 0.8,0.64 0.16,0 0.32,0 0.48,-0.16 z m -1.44,-1.28 c 0,0.32 0,0.48 -0.32,0.8 -0.32,0.32 -0.8,0.48 -1.28,0.48 -0.64,0 -1.12,-0.32 -1.12,-0.96 0,-0.48 0.48,-0.8 1.44,-0.96 0.8,-0.16 1.12,-0.16 1.28,-0.32 z"
             style="fill:#000000;fill-opacity:1;fill-rule:nonzero;stroke:none"
             id="path298" />
        </g>
        <g
           id="g300"
           transform="translate(297.60001,200.8)">
          <path
             d="m 0,0 0.16,5.44 h 0.8 V 2.56 C 0.96,1.76 1.12,1.28 1.6,0.96 1.92,0.8 2.08,0.8 2.72,0.8 v -0.96 c -0.16,0 -0.32,0 -0.48,0 -0.48,0 -0.96,0.32 -1.44,1.12 L 0.8,0 Z"
             style="fill:#000000;fill-opacity:1;fill-rule:nonzero;stroke:none"
             id="path302" />
        </g>
        <g
           id="g304"
           transform="translate(303.51999,200.8)">
          <path
             d="m 0,0 h -0.96 v -1.44 h -0.8 V 0 H -2.4 v 0.64 h 0.64 V 4.8 c 0,0.48 0.48,0.8 0.96,0.8 0.32,0 0.48,0 0.8,-0.16 L 0,4.96 c -0.16,0 -0.32,0 -0.48,0 -0.32,0 -0.48,-0.16 -0.48,-0.48 V 0.64 H 0 Z"
             style="fill:#000000;fill-opacity:1;fill-rule:nonzero;stroke:none"
             id="path306" />
        </g>
        <g
           id="g308"
           transform="translate(305.28,200.8)">
          <path
             d="M 0,0 H -0.8 V 5.44 H 0 Z m -0.16,-2.08 h -0.8 v 1.12 h 0.8 z"
             style="fill:#000000;fill-opacity:1;fill-rule:nonzero;stroke:none"
             id="path310" />
        </g>
      </g>
    </g>
    <g
       id="g312">
      <path
         d="m 295.84,157.28 h 32.48001 v 19.04001 H 295.84 Z"
         style="fill:#ccccff;fill-opacity:1;fill-rule:nonzero;stroke:none"
         id="path314" />
    </g>
    <g
       id="g316">
      <path
         d="m 295.84,176.16 h 32.32 v -18.88 h -32.32 z"
         style="fill:none;stroke:#000000;stroke-width:0.64;stroke-linecap:butt;stroke-linejoin:miter;stroke-miterlimit:10;stroke-dasharray:none;stroke-opacity:1"
         id="path318" />
    </g>
    <g
       id="g320">
      <g
         id="g322"
         clip-path="url(#clipPath326)">
        <g
           id="g328"
           transform="translate(302.56,170.39999)">
          <path
             d="m 0,0 h 2.88 c 1.28,0 1.92,-0.32 2.4,-0.8 0.64,-0.8 0.8,-1.76 0.8,-3.04 0,-1.12 -0.16,-2.24 -0.8,-2.88 -0.48,-0.64 -1.12,-0.8 -2.4,-0.8 H 0 Z m 1.28,-1.28 v -4.96 h 1.6 c 1.28,0 1.92,0.8 1.92,2.4 0,1.76 -0.64,2.56 -1.92,2.56 z"
             style="fill:#000000;fill-opacity:1;fill-rule:nonzero;stroke:none"
             id="path330" />
        </g>
        <g
           id="g332"
           transform="translate(310.72,164.96001)">
          <path
             d="M 0,0 H -0.8 V 5.44 H 0 Z m -0.16,-2.08 h -0.8 v 1.12 h 0.8 z"
             style="fill:#000000;fill-opacity:1;fill-rule:nonzero;stroke:none"
             id="path334" />
        </g>
        <g
           id="g336"
           transform="translate(312.16,172.64)">
          <path
             d="m 0,0 h 0.64 v -2.88 c 0.48,0.48 0.96,0.8 1.76,0.8 1.28,0 2.08,-1.12 2.08,-2.88 0,-1.76 -0.64,-2.88 -2.08,-2.88 -0.8,0 -1.44,0.32 -1.92,0.96 v -0.8 h -0.64 z m 2.24,-7.04 c 0.96,0 1.6,0.8 1.6,2.08 0,1.28 -0.64,2.08 -1.6,2.08 -0.96,0 -1.6,-0.8 -1.6,-2.08 0,-1.28 0.64,-2.08 1.6,-2.08 z"
             style="fill:#000000;fill-opacity:1;fill-rule:nonzero;stroke:none"
             id="path338" />
        </g>
        <g
           id="g340"
           transform="translate(321.60001,166.39999)">
          <path
             d="M 0,0 C 0,-0.96 -0.64,-1.6 -1.92,-1.6 -3.2,-1.6 -4,-0.96 -4,0 c 0,0.8 0.48,1.28 1.76,1.6 l 0.8,0.16 c 0.64,0.16 0.8,0.32 0.8,0.8 0,0.48 -0.48,0.8 -1.28,0.8 C -2.4,3.36 -2.72,3.2 -3.04,3.04 -3.2,2.88 -3.2,2.72 -3.2,2.24 H -4 c 0,1.28 0.64,1.92 2.08,1.92 1.44,0 2.08,-0.64 2.08,-1.76 0,-0.8 -0.32,-1.12 -1.44,-1.44 L -2.08,0.8 C -2.88,0.64 -3.2,0.32 -3.2,0 c 0,-0.48 0.48,-0.8 1.28,-0.8 0.64,0 1.12,0.32 1.12,0.8 z"
             style="fill:#000000;fill-opacity:1;fill-rule:nonzero;stroke:none"
             id="path342" />
        </g>
        <g
           id="g344">
          <path
             d="M 239.36,140.32001 166.72,157.28"
             style="fill:none;stroke:#000000;stroke-width:0.64;stroke-linecap:butt;stroke-linejoin:miter;stroke-miterlimit:10;stroke-dasharray:none;stroke-opacity:1"
             id="path346" />
        </g>
        <g
           id="g348"
           transform="translate(169.28,157.28)">
          <path
             d="M 0,0 C 0,-1.44 -1.12,-2.56 -2.56,-2.56 -4,-2.56 -5.12,-1.44 -5.12,0 -5.12,1.44 -4,2.56 -2.56,2.56 -1.12,2.56 0,1.44 0,0 Z"
             style="fill:#ffffff;fill-opacity:1;fill-rule:nonzero;stroke:none"
             id="path350" />
        </g>
        <g
           id="g352"
           transform="translate(169.28,157.28)">
          <path
             d="M 0,0 C 0,-1.44 -1.12,-2.56 -2.56,-2.56 -4,-2.56 -5.12,-1.44 -5.12,0 -5.12,1.44 -4,2.56 -2.56,2.56 -1.12,2.56 0,1.44 0,0 Z"
             style="fill:none;stroke:#000000;stroke-width:0.64;stroke-linecap:butt;stroke-linejoin:miter;stroke-miterlimit:10;stroke-dasharray:none;stroke-opacity:1"
             id="path354" />
        </g>
        <g
           id="g356">
          <path
             d="m 166.72,176.16 -25.60001,16.95999"
             style="fill:none;stroke:#000000;stroke-width:0.64;stroke-linecap:butt;stroke-linejoin:miter;stroke-miterlimit:10;stroke-dasharray:none;stroke-opacity:1"
             id="path358" />
        </g>
        <g
           id="g360">
          <path
             d="m 166.72,176.16 25.60001,16.95999"
             style="fill:none;stroke:#000000;stroke-width:0.64;stroke-linecap:butt;stroke-linejoin:miter;stroke-miterlimit:10;stroke-dasharray:none;stroke-opacity:1"
             id="path362" />
        </g>
        <g
           id="g364">
          <path
             d="M 239.36,140.32001 263.67999,157.28"
             style="fill:none;stroke:#000000;stroke-width:0.64;stroke-linecap:butt;stroke-linejoin:miter;stroke-miterlimit:10;stroke-dasharray:none;stroke-opacity:1"
             id="path366" />
        </g>
        <g
           id="g368"
           transform="translate(266.23999,157.28)">
          <path
             d="M 0,0 C 0,-1.44 -1.12,-2.56 -2.56,-2.56 -4,-2.56 -5.28,-1.44 -5.28,0 -5.28,1.44 -4,2.56 -2.56,2.56 -1.12,2.56 0,1.44 0,0 Z"
             style="fill:#ffffff;fill-opacity:1;fill-rule:nonzero;stroke:none"
             id="path370" />
        </g>
        <g
           id="g372"
           transform="translate(266.23999,157.28)">
          <path
             d="M 0,0 C 0,-1.44 -1.12,-2.56 -2.56,-2.56 -4,-2.56 -5.28,-1.44 -5.28,0 -5.28,1.44 -4,2.56 -2.56,2.56 -1.12,2.56 0,1.44 0,0 Z"
             style="fill:none;stroke:#000000;stroke-width:0.64;stroke-linecap:butt;stroke-linejoin:miter;stroke-miterlimit:10;stroke-dasharray:none;stroke-opacity:1"
             id="path374" />
        </g>
        <g
           id="g376">
          <path
             d="m 263.67999,176.16 -26.07998,16.95999"
             style="fill:none;stroke:#000000;stroke-width:0.64;stroke-linecap:butt;stroke-linejoin:miter;stroke-miterlimit:10;stroke-dasharray:none;stroke-opacity:1"
             id="path378" />
        </g>
        <g
           id="g380">
          <path
             d="m 263.67999,176.16 26.08002,16.95999"
             style="fill:none;stroke:#000000;stroke-width:0.64;stroke-linecap:butt;stroke-linejoin:miter;stroke-miterlimit:10;stroke-dasharray:none;stroke-opacity:1"
             id="path382" />
        </g>
        <g
           id="g384">
          <path
             d="M 239.36,140.32001 312,157.28"
             style="fill:none;stroke:#000000;stroke-width:0.64;stroke-linecap:butt;stroke-linejoin:miter;stroke-miterlimit:10;stroke-dasharray:none;stroke-opacity:1"
             id="path386" />
        </g>
        <g
           id="g388"
           transform="translate(314.56,157.28)">
          <path
             d="M 0,0 C 0,-1.44 -1.12,-2.56 -2.56,-2.56 -4,-2.56 -5.12,-1.44 -5.12,0 -5.12,1.44 -4,2.56 -2.56,2.56 -1.12,2.56 0,1.44 0,0 Z"
             style="fill:#ffffff;fill-opacity:1;fill-rule:nonzero;stroke:none"
             id="path390" />
        </g>
        <g
           id="g392"
           transform="translate(314.56,157.28)">
          <path
             d="M 0,0 C 0,-1.44 -1.12,-2.56 -2.56,-2.56 -4,-2.56 -5.12,-1.44 -5.12,0 -5.12,1.44 -4,2.56 -2.56,2.56 -1.12,2.56 0,1.44 0,0 Z"
             style="fill:none;stroke:#000000;stroke-width:0.64;stroke-linecap:butt;stroke-linejoin:miter;stroke-miterlimit:10;stroke-dasharray:none;stroke-opacity:1"
             id="path394" />
        </g>
        <g
           id="g396">
          <path
             d="m 166.72,176.16 9.12,6.08 c -6.08001,3.68 -12.16001,3.68 -18.4,0 z"
             style="fill:#000000;fill-opacity:1;fill-rule:nonzero;stroke:none"
             id="path398" />
        </g>
        <g
           id="g400">
          <path
             d="m 166.72,176.16 9.12,6.08 c -6.08001,3.68 -12.16001,3.68 -18.4,0 z"
             style="fill:none;stroke:#000000;stroke-width:0.64;stroke-linecap:butt;stroke-linejoin:miter;stroke-miterlimit:10;stroke-dasharray:none;stroke-opacity:1"
             id="path402" />
        </g>
        <g
           id="g404">
          <path
             d="m 263.67999,176.16 9.12,6.08 c -6.23999,3.51999 -12.15998,3.51999 -18.4,0 z"
             style="fill:#ffffff;fill-opacity:1;fill-rule:nonzero;stroke:none"
             id="path406" />
        </g>
        <g
           id="g408">
          <path
             d="m 263.67999,176.16 9.12,6.08 c -6.23999,3.51999 -12.15998,3.51999 -18.4,0 z"
             style="fill:none;stroke:#000000;stroke-width:0.8;stroke-linecap:butt;stroke-linejoin:miter;stroke-miterlimit:10;stroke-dasharray:none;stroke-opacity:1"
             id="path410" />
        </g>
        <g
           id="g412"
           transform="translate(82.400002,145.44)">
          <path
             d="M 0,0 C -0.16,0.16 -0.32,0.32 -0.48,0.32 -0.8,0.32 -0.8,0.16 -0.8,-0.32 V -2.4 c 0,-0.64 0,-0.96 -0.16,-1.12 -0.32,-0.48 -0.64,-0.64 -1.28,-0.64 -1.12,0 -1.76,0.48 -1.76,1.12 0,0.32 0.16,0.48 0.48,0.48 0.16,0 0.32,-0.16 0.32,-0.32 0,-0.16 0,-0.16 0,-0.32 0,0 0,-0.16 0,-0.16 0,-0.32 0.32,-0.48 0.8,-0.48 0.48,0 0.8,0.16 0.8,0.8 v 0.64 c -1.6,0.64 -1.76,0.8 -2.24,1.12 -0.16,0.32 -0.32,0.64 -0.32,0.96 0,0.64 0.48,1.12 0.96,1.12 0.48,0 0.96,-0.32 1.6,-0.8 0,0.64 0.32,0.8 0.64,0.8 0.32,0 0.48,-0.16 0.96,-0.48 z m -1.6,-0.64 c 0,0.32 0,0.48 -0.32,0.64 -0.16,0 -0.48,0.16 -0.8,0.16 -0.32,0 -0.64,-0.32 -0.64,-0.8 v 0 c 0,-0.64 0.48,-0.96 1.76,-1.44 z"
             style="fill:#0000ff;fill-opacity:1;fill-rule:nonzero;stroke:none"
             id="path414" />
        </g>
        <g
           id="g416"
           transform="translate(84,139.03999)">
          <path
             d="M 0,0 -0.16,-0.16 C -0.48,0 -0.8,0.16 -1.28,0.32 h -0.16 v 0.16 c 0,0 0,0 0.16,0 0.32,0 0.48,0.16 0.48,0.64 V 6.56 C -0.8,6.88 0,7.2 0.8,7.2 2.24,7.2 3.2,6.08 3.2,4.48 3.2,3.2 2.4,2.24 1.44,2.24 0.8,2.24 0.16,2.56 0,3.04 Z M 0,3.68 C 0,3.2 0.48,2.88 0.96,2.88 1.76,2.88 2.4,3.68 2.4,4.96 2.4,6.24 1.92,6.88 0.96,6.88 0.48,6.88 0,6.56 0,6.4 Z"
             style="fill:#0000ff;fill-opacity:1;fill-rule:nonzero;stroke:none"
             id="path418" />
        </g>
        <g
           id="g420"
           transform="translate(90.879997,142.72)">
          <path
             d="m 0,0 -0.16,-1.28 v 0 0 c -0.16,0 -0.16,0 -0.16,0 -0.16,0 -0.32,0 -0.32,0 -0.32,-0.16 -0.48,-0.16 -0.8,-0.16 -0.8,0 -1.44,0.48 -1.44,1.28 0,0.64 0.32,0.96 1.28,1.6 l 0.64,0.32 c 0.32,0.16 0.48,0.48 0.48,0.8 0,0.48 -0.32,0.8 -0.8,0.8 -0.48,0 -0.8,-0.16 -0.96,-0.48 C -2.4,2.72 -2.56,2.4 -2.72,1.76 h -0.16 v 1.6 h 0.16 c 0,0 0.16,0 0.16,0 0.16,-0.16 0.32,-0.16 0.48,0 0.32,0 0.64,0.16 0.8,0.16 0.96,0 1.6,-0.64 1.6,-1.28 C 0.32,1.6 0,1.28 -0.64,0.96 L -1.76,0.16 C -2.08,0 -2.24,-0.32 -2.24,-0.48 c 0,-0.48 0.32,-0.8 0.8,-0.8 0.64,0 0.96,0.32 1.28,1.28 z"
             style="fill:#0000ff;fill-opacity:1;fill-rule:nonzero;stroke:none"
             id="path422" />
        </g>
        <g
           id="g424"
           transform="translate(94.239998,141.44)">
          <path
             d="m 0,0 h -1.12 v -1.28 c 0,0 0,0 0,0 -0.16,0 -0.16,0.16 -0.16,0.16 C -1.76,-0.48 -2.08,0 -2.24,0 -2.4,0.16 -2.56,0.16 -2.56,0.16 c 0,0.16 0,0.16 0.16,0.16 h 0.48 v 3.2 c 0,0.8 0.32,1.28 0.8,1.28 0.64,0 0.96,-0.32 1.28,-0.8 L 0,3.84 C -0.16,4.16 -0.32,4.32 -0.64,4.32 -0.96,4.32 -1.12,4 -1.12,3.36 V 0.32 H 0 Z"
             style="fill:#0000ff;fill-opacity:1;fill-rule:nonzero;stroke:none"
             id="path426" />
        </g>
        <g
           id="g428"
           transform="translate(94.559998,141.92)">
          <path
             d="M 0,0 C 0.16,0 0.16,0 0.32,0 0.64,0 0.64,0.16 0.64,0.64 V 3.2 C 0.64,3.84 0.64,3.84 0,4 V 4.16 H 2.4 V 4 C 1.6,4 1.44,3.84 1.44,3.2 V 0.8 C 1.44,0.48 1.92,0 2.24,0 c 0,0 0.16,0 0.16,0.16 0.16,0.16 0.32,0.16 0.48,0.16 0.16,0 0.32,-0.16 0.32,-0.48 0,-0.32 -0.16,-0.48 -0.48,-0.48 -0.48,0 -0.8,0.16 -1.28,0.96 v -0.96 0 C 0.96,-0.48 0.64,-0.32 0,-0.16 Z"
             style="fill:#0000ff;fill-opacity:1;fill-rule:nonzero;stroke:none"
             id="path430" />
        </g>
        <g
           id="g432"
           transform="translate(102.4,145.44)">
          <path
             d="m 0,0 c -0.16,0.16 -0.32,0.32 -0.48,0.32 -0.16,0 -0.16,-0.16 -0.16,-0.64 V -2.4 c 0,-0.64 -0.16,-0.96 -0.32,-1.12 -0.16,-0.48 -0.64,-0.64 -1.28,-0.64 -0.96,0 -1.6,0.48 -1.6,1.12 0,0.32 0.16,0.48 0.32,0.48 0.32,0 0.48,-0.16 0.48,-0.32 0,-0.16 0,-0.16 0,-0.32 0,0 0,-0.16 0,-0.16 0,-0.32 0.32,-0.48 0.64,-0.48 0.64,0 0.96,0.16 0.96,0.8 v 0.64 c -1.76,0.64 -1.92,0.8 -2.24,1.12 -0.32,0.32 -0.48,0.64 -0.48,0.96 0,0.64 0.48,1.12 1.12,1.12 0.48,0 0.96,-0.32 1.6,-0.8 0,0.64 0.16,0.8 0.64,0.8 0.32,0 0.48,-0.16 0.8,-0.48 z m -1.44,-0.64 c 0,0.32 -0.16,0.48 -0.32,0.64 -0.32,0 -0.64,0.16 -0.8,0.16 -0.32,0 -0.64,-0.32 -0.64,-0.8 v 0 c 0,-0.64 0.32,-0.96 1.76,-1.44 z"
             style="fill:#0000ff;fill-opacity:1;fill-rule:nonzero;stroke:none"
             id="path434" />
        </g>
        <g
           id="g436"
           transform="translate(106.56,144.48)">
          <path
             d="m 0,0 c -0.48,0.8 -0.8,0.96 -1.44,0.96 -0.96,0 -1.6,-0.8 -1.6,-2.08 0,-1.12 0.64,-1.76 1.44,-1.76 0.32,0 0.48,0 0.64,0.48 v 0.16 c 0.16,0.32 0.32,0.48 0.48,0.48 0.32,0 0.48,-0.16 0.48,-0.32 0,-0.64 -0.64,-1.12 -1.6,-1.12 -0.48,0 -0.96,0.16 -1.44,0.64 -0.48,0.32 -0.8,1.12 -0.8,1.92 0,1.44 0.8,2.4 2.08,2.4 0.32,0 0.8,-0.16 1.12,-0.48 0.32,-0.32 0.48,-0.64 0.8,-1.12 z"
             style="fill:#0000ff;fill-opacity:1;fill-rule:nonzero;stroke:none"
             id="path438" />
        </g>
        <g
           id="g440"
           transform="translate(109.76,141.44)">
          <path
             d="m 0,0 h -1.12 v -1.28 c 0,0 0,0 0,0 -0.16,0 -0.16,0.16 -0.32,0.16 C -1.76,-0.48 -2.08,0 -2.4,0 c 0,0.16 -0.16,0.16 -0.16,0.16 0,0.16 0,0.16 0,0.16 h 0.64 v 3.2 c 0,0.8 0.32,1.28 0.8,1.28 0.48,0 0.96,-0.32 1.28,-0.8 L 0,3.84 C -0.16,4.16 -0.32,4.32 -0.64,4.32 -0.96,4.32 -1.12,4 -1.12,3.36 V 0.32 H 0 Z"
             style="fill:#0000ff;fill-opacity:1;fill-rule:nonzero;stroke:none"
             id="path442" />
        </g>
        <g
           id="g444"
           transform="translate(116.64,141.44)">
          <path
             d="m 0,0 h -1.28 v -1.28 c 0,-0.48 0.32,-0.8 0.64,-0.8 0.16,0 0.32,0 0.64,0.32 0.16,0.32 0.16,0.48 0.32,0.48 0.32,0 0.48,-0.32 0.48,-0.48 0,-0.32 -0.48,-0.64 -1.12,-0.64 -0.64,0 -1.12,0.32 -1.28,0.8 -0.32,0.32 -0.32,0.8 -0.32,1.6 h -0.96 v 0.32 h 0.96 v 3.2 c 0,0.8 -0.16,0.96 -0.96,0.96 v 0.16 h 2.72 V 4.48 c -0.96,0 -0.96,-0.16 -0.96,-0.96 V 0.32 H 0 Z"
             style="fill:#0000ff;fill-opacity:1;fill-rule:nonzero;stroke:none"
             id="path446" />
        </g>
        <g
           id="g448"
           transform="translate(121.12,144.32001)">
          <path
             d="M 0,0 C -0.48,0.8 -0.8,1.12 -1.6,1.12 -2.08,1.12 -2.56,0.8 -2.88,0.16 -3.04,-0.16 -3.2,-0.48 -3.2,-1.12 H 0 c 0,-0.64 -0.16,-0.96 -0.48,-1.44 -0.16,-0.32 -0.64,-0.48 -1.28,-0.48 -0.48,0 -0.96,0.16 -1.44,0.48 -0.48,0.48 -0.64,1.28 -0.64,2.08 0,1.44 0.64,2.4 1.92,2.4 0.96,0 1.76,-0.64 2.08,-1.76 z m -3.2,-1.44 c 0.16,-0.96 0.48,-1.28 1.12,-1.28 0.64,0 0.96,0.32 1.12,1.28 z"
             style="fill:#0000ff;fill-opacity:1;fill-rule:nonzero;stroke:none"
             id="path450" />
        </g>
        <g
           id="g452"
           transform="translate(126.08,145.44)">
          <path
             d="m 0,0 c -0.16,0.16 -0.16,0.32 -0.32,0.32 -0.32,0 -0.32,-0.16 -0.32,-0.64 V -2.4 c 0,-0.64 -0.16,-0.96 -0.32,-1.12 -0.16,-0.48 -0.48,-0.64 -1.12,-0.64 -1.12,0 -1.76,0.48 -1.76,1.12 0,0.32 0.16,0.48 0.32,0.48 0.32,0 0.48,-0.16 0.48,-0.32 0,-0.16 0,-0.16 0,-0.32 0,0 0,-0.16 0,-0.16 0,-0.32 0.32,-0.48 0.8,-0.48 0.48,0 0.8,0.16 0.8,0.8 v 0.64 c -1.76,0.64 -1.92,0.8 -2.24,1.12 -0.16,0.32 -0.32,0.64 -0.32,0.96 0,0.64 0.32,1.12 0.96,1.12 0.48,0 0.96,-0.32 1.6,-0.8 0,0.64 0.16,0.8 0.64,0.8 0.32,0 0.48,-0.16 0.8,-0.48 z m -1.44,-0.64 c 0,0.32 -0.16,0.48 -0.32,0.64 -0.32,0 -0.64,0.16 -0.8,0.16 -0.32,0 -0.64,-0.32 -0.64,-0.8 v 0 c 0,-0.64 0.48,-0.96 1.76,-1.44 z"
             style="fill:#0000ff;fill-opacity:1;fill-rule:nonzero;stroke:none"
             id="path454" />
        </g>
        <g
           id="g456"
           transform="translate(128.8,141.44)">
          <path
             d="m 0,0 h -1.12 v -1.28 c 0,0 0,0 0,0 0,0 -0.16,0.16 -0.16,0.16 C -1.6,-0.48 -2.08,0 -2.24,0 -2.4,0.16 -2.4,0.16 -2.4,0.16 c 0,0.16 0,0.16 0,0.16 h 0.64 v 3.2 c 0,0.8 0.16,1.28 0.8,1.28 0.48,0 0.8,-0.32 1.12,-0.8 V 3.84 C -0.16,4.16 -0.32,4.32 -0.48,4.32 -0.96,4.32 -1.12,4 -1.12,3.36 V 0.32 H 0 Z"
             style="fill:#0000ff;fill-opacity:1;fill-rule:nonzero;stroke:none"
             id="path458" />
        </g>
        <g
           id="g460"
           transform="translate(133.92,145.60001)">
          <path
             d="m 0,0 v 0 c -0.48,0 -0.64,-0.16 -0.64,-0.64 v -3.52 h -1.6 V -4 c 0.8,0 0.8,0.16 0.8,0.64 v 2.4 c 0,0.32 0,0.48 -0.16,0.64 C -1.92,-0.16 -2.24,0 -2.56,0 -2.88,0 -3.36,-0.32 -3.36,-0.8 V -4.16 H -4.8 V -4 c 0.64,0 0.64,0.16 0.64,0.64 v 2.56 c 0,0.8 0.48,1.44 1.28,1.44 0.32,0 0.8,-0.16 1.12,-0.48 l 0.48,-0.48 v 0.96 0 C -0.8,0.48 -0.48,0.32 0,0.16 Z"
             style="fill:#0000ff;fill-opacity:1;fill-rule:nonzero;stroke:none"
             id="path462" />
        </g>
        <g
           id="g464"
           transform="translate(134.24,141.92)">
          <path
             d="M 0,0 C 0.16,0 0.32,0 0.48,0 0.64,0 0.8,0.16 0.8,0.64 V 3.2 C 0.8,3.84 0.64,3.84 0,4 V 4.16 H 2.4 V 4 C 1.76,4 1.6,3.84 1.6,3.2 V 0.8 C 1.6,0.48 1.92,0 2.24,0 2.4,0 2.4,0 2.56,0.16 2.72,0.32 2.88,0.32 2.88,0.32 3.2,0.32 3.36,0.16 3.36,-0.16 3.36,-0.48 3.2,-0.64 2.72,-0.64 2.4,-0.64 2.08,-0.48 1.6,0.32 V -0.64 H 1.44 C 0.96,-0.48 0.64,-0.32 0,-0.16 Z"
             style="fill:#0000ff;fill-opacity:1;fill-rule:nonzero;stroke:none"
             id="path466" />
        </g>
        <g
           id="g468"
           transform="translate(141.92,144.32001)">
          <path
             d="M 0,0 C -0.64,0.8 -0.96,1.12 -1.6,1.12 -2.24,1.12 -2.72,0.8 -3.04,0.16 -3.2,-0.16 -3.2,-0.48 -3.36,-1.12 h 3.2 c 0,-0.64 -0.16,-0.96 -0.32,-1.44 -0.32,-0.32 -0.8,-0.48 -1.44,-0.48 -0.48,0 -0.96,0.16 -1.28,0.48 -0.48,0.48 -0.8,1.28 -0.8,2.08 0,1.44 0.64,2.4 1.92,2.4 0.96,0 1.76,-0.64 2.24,-1.76 z m -3.2,-1.44 c 0,-0.96 0.48,-1.28 0.96,-1.28 0.64,0 0.96,0.32 1.12,1.28 z"
             style="fill:#0000ff;fill-opacity:1;fill-rule:nonzero;stroke:none"
             id="path470" />
        </g>
        <g
           id="g472"
           transform="translate(130.24,119.68)">
          <path
             d="M 0,0 C -1.44,0 -2.24,1.12 -2.24,2.56 -2.24,4 -1.44,4.96 0,4.96 1.44,4.96 2.24,3.84 2.24,2.4 2.24,1.12 1.44,0 0,0 Z m -0.16,0.32 c 0.96,0 1.6,1.12 1.6,2.56 C 1.44,4 0.96,4.64 0.16,4.64 -0.32,4.64 -0.64,4.48 -0.96,4 -1.28,3.52 -1.44,2.72 -1.44,2.08 c 0,-1.12 0.48,-1.76 1.28,-1.76 z"
             style="fill:#0000ff;fill-opacity:1;fill-rule:nonzero;stroke:none"
             id="path474" />
        </g>
        <g
           id="g476"
           transform="translate(132.96001,120.48)">
          <path
             d="M 0,0 C 0.16,0 0.16,0 0.32,0 0.64,0 0.8,0.16 0.8,0.64 v 4.8 C 0.8,5.92 0.64,6.08 0,6.08 V 6.24 H 2.4 V 6.08 c -0.8,0 -0.96,0 -0.96,-0.64 V 3.84 C 1.92,4.16 2.08,4.16 2.56,4.16 3.84,4.16 4.64,3.04 4.64,1.44 4.64,0.16 4,-0.8 3.04,-0.8 2.4,-0.8 1.92,-0.48 1.44,0.16 v -0.96 0 C 0.96,-0.48 0.64,-0.32 0,-0.16 Z m 1.44,0.64 c 0,-0.32 0.64,-0.8 1.12,-0.8 C 3.36,-0.16 4,0.64 4,1.92 4,3.04 3.36,3.84 2.56,3.84 2.08,3.84 1.44,3.52 1.44,3.2 Z"
             style="fill:#0000ff;fill-opacity:1;fill-rule:nonzero;stroke:none"
             id="path478" />
        </g>
        <g
           id="g480"
           transform="translate(140.8,119.84)">
          <path
             d="m 0,0 h -1.12 v -1.12 c 0,-0.16 0,-0.16 -0.16,-0.16 0,0.16 0,0.16 -0.16,0.32 -0.32,0.48 -0.8,1.12 -0.96,1.12 -0.16,0 -0.16,0.16 -0.16,0.16 0,0 0,0 0,0 h 0.64 v 3.2 c 0,0.96 0.32,1.28 0.8,1.28 0.48,0 0.96,-0.16 1.28,-0.64 L 0,4 C -0.16,4.32 -0.32,4.32 -0.64,4.32 -0.96,4.32 -1.12,4 -1.12,3.36 V 0.32 H 0 Z"
             style="fill:#0000ff;fill-opacity:1;fill-rule:nonzero;stroke:none"
             id="path482" />
        </g>
        <g
           id="g484"
           transform="translate(142.56,119.84)">
          <path
             d="m 0,0 -1.44,0.48 v 0.16 h 0.16 c 0,0 0.16,0 0.32,0 0.16,0 0.32,0.16 0.32,0.64 v 2.4 c 0,0.64 -0.16,0.8 -0.8,0.8 V 4.64 H 0.8 V 4.48 C 0.16,4.48 0.16,4.32 0.16,3.68 V 0 Z m -0.32,-2.4 c -0.32,0 -0.48,0.32 -0.48,0.64 0,0.16 0.16,0.48 0.48,0.48 0.32,0 0.64,-0.16 0.64,-0.48 C 0.32,-2.08 0,-2.4 -0.32,-2.4 Z"
             style="fill:#0000ff;fill-opacity:1;fill-rule:nonzero;stroke:none"
             id="path486" />
        </g>
        <g
           id="g488"
           transform="translate(146.39999,119.68)">
          <path
             d="M 0,0 C -1.44,0 -2.24,1.12 -2.24,2.56 -2.24,4 -1.44,4.96 0,4.96 1.28,4.96 2.24,3.84 2.24,2.4 2.24,1.12 1.44,0 0,0 Z m -0.16,0.32 c 0.96,0 1.6,1.12 1.6,2.56 C 1.44,4 0.96,4.64 0,4.64 -0.32,4.64 -0.8,4.48 -0.96,4 -1.28,3.52 -1.44,2.72 -1.44,2.08 c 0,-1.12 0.48,-1.76 1.28,-1.76 z"
             style="fill:#0000ff;fill-opacity:1;fill-rule:nonzero;stroke:none"
             id="path490" />
        </g>
        <g
           id="g492"
           transform="translate(149.11999,120.32)">
          <path
             d="M 0,0 C 0,0 0.16,0 0.32,0 0.64,0 0.64,0.16 0.64,0.64 V 3.2 C 0.64,3.84 0.48,4 0,4 V 4.16 H 2.24 V 4 C 1.6,4 1.44,3.84 1.44,3.52 V 0.48 C 1.92,0 2.24,0 2.56,0 3.04,0 3.36,0.32 3.36,0.96 V 3.2 C 3.36,3.84 3.2,4 2.72,4 V 4.16 H 4.8 V 4 C 4.32,4 4.16,3.84 4.16,3.36 V 0.96 C 4.16,0 3.68,-0.48 3.04,-0.48 c -0.48,0 -0.96,0.16 -1.6,0.64 V -0.48 H 1.28 C 0.96,-0.32 0.64,-0.32 0,-0.16 Z"
             style="fill:#0000ff;fill-opacity:1;fill-rule:nonzero;stroke:none"
             id="path494" />
        </g>
        <g
           id="g496"
           transform="translate(158.72,124)">
          <path
             d="M 0,0 C -0.16,0.16 -0.32,0.16 -0.48,0.16 -0.64,0.16 -0.8,0 -0.8,-0.48 v -2.08 c 0,-0.48 0,-0.8 -0.16,-1.12 C -1.12,-4 -1.6,-4.32 -2.24,-4.32 -3.2,-4.32 -4,-3.68 -4,-3.04 c 0,0.32 0.32,0.48 0.48,0.48 0.16,0 0.48,-0.16 0.48,-0.48 0,0 0,-0.16 -0.16,-0.16 0,-0.16 0,-0.16 0,-0.32 0,-0.16 0.32,-0.48 0.8,-0.48 0.64,0 0.8,0.32 0.8,0.96 v 0.64 c -1.6,0.64 -1.76,0.64 -2.24,1.12 -0.16,0.16 -0.32,0.64 -0.32,0.96 0,0.48 0.48,0.96 0.96,0.96 0.48,0 0.96,-0.16 1.6,-0.64 0.16,0.48 0.32,0.64 0.64,0.64 0.32,0 0.64,-0.16 0.96,-0.32 z m -1.6,-0.64 c 0,0.32 0,0.32 -0.16,0.48 -0.32,0.16 -0.64,0.32 -0.8,0.32 -0.48,0 -0.8,-0.48 -0.8,-0.8 V -0.8 c 0,-0.48 0.48,-0.96 1.76,-1.44 z"
             style="fill:#0000ff;fill-opacity:1;fill-rule:nonzero;stroke:none"
             id="path498" />
        </g>
        <g
           id="g500"
           transform="translate(159.03999,118.08)">
          <path
             d="M 0,0 V 0 C 0.16,0 0.32,0 0.32,0 0.64,0 0.8,0.16 0.8,0.64 V 5.6 C 0.8,6.08 0.64,6.24 0,6.24 V 6.4 H 2.4 V 6.24 c -0.64,0 -0.8,0 -0.8,-0.64 v -6.24 0 C 1.12,-0.48 0.64,-0.32 0,-0.16 Z"
             style="fill:#0000ff;fill-opacity:1;fill-rule:nonzero;stroke:none"
             id="path502" />
        </g>
        <g
           id="g504"
           transform="translate(168.32001,119.84)">
          <path
             d="m 0,0 h -1.28 v -1.12 c 0,-0.64 0.32,-0.96 0.64,-0.96 0.32,0 0.32,0.16 0.64,0.48 0.16,0.16 0.16,0.32 0.32,0.32 0.32,0 0.48,-0.16 0.48,-0.48 0,-0.32 -0.48,-0.64 -1.12,-0.64 -0.64,0 -1.12,0.32 -1.28,0.8 -0.32,0.48 -0.32,0.8 -0.32,1.6 h -0.96 v 0.32 h 0.96 v 3.36 c 0,0.64 -0.16,0.8 -0.96,0.8 v 0.16 h 2.72 V 4.48 c -0.96,0 -0.96,0 -0.96,-0.8 V 0.32 H 0 Z"
             style="fill:#0000ff;fill-opacity:1;fill-rule:nonzero;stroke:none"
             id="path506" />
        </g>
        <g
           id="g508"
           transform="translate(172.8,122.88)">
          <path
             d="M 0,0 C -0.48,0.8 -0.8,1.12 -1.6,1.12 -2.08,1.12 -2.56,0.8 -2.88,0.16 -3.04,-0.32 -3.04,-0.64 -3.2,-1.28 H 0 c 0,-0.64 -0.16,-0.96 -0.32,-1.28 -0.32,-0.48 -0.8,-0.64 -1.44,-0.64 -0.48,0 -0.96,0.16 -1.28,0.48 -0.64,0.48 -0.8,1.28 -0.8,2.08 0,1.6 0.64,2.4 1.92,2.4 0.96,0 1.76,-0.64 2.24,-1.76 z m -3.04,-1.6 c 0,-0.8 0.32,-1.28 0.96,-1.28 0.64,0 0.96,0.32 1.12,1.28 z"
             style="fill:#0000ff;fill-opacity:1;fill-rule:nonzero;stroke:none"
             id="path510" />
        </g>
        <g
           id="g512"
           transform="translate(177.92,124)">
          <path
             d="M 0,0 C -0.32,0.16 -0.32,0.16 -0.48,0.16 -0.8,0.16 -0.8,0 -0.8,-0.48 v -2.08 c 0,-0.48 -0.16,-0.8 -0.16,-1.12 -0.32,-0.32 -0.64,-0.64 -1.28,-0.64 -1.12,0 -1.76,0.64 -1.76,1.28 0,0.32 0.16,0.48 0.32,0.48 0.32,0 0.48,-0.16 0.48,-0.48 0,0 0,-0.16 0,-0.16 0,-0.16 0,-0.16 0,-0.32 0,-0.16 0.32,-0.48 0.8,-0.48 0.48,0 0.8,0.32 0.8,0.96 v 0.64 c -1.76,0.64 -1.92,0.64 -2.24,1.12 -0.16,0.16 -0.32,0.64 -0.32,0.96 0,0.48 0.32,0.96 0.96,0.96 0.48,0 0.96,-0.16 1.6,-0.64 0,0.48 0.16,0.64 0.64,0.64 0.32,0 0.48,-0.16 0.96,-0.32 z m -1.6,-0.64 c 0,0.32 0,0.32 -0.32,0.48 -0.32,0.16 -0.48,0.32 -0.8,0.32 -0.32,0 -0.64,-0.48 -0.64,-0.8 V -0.8 c 0,-0.48 0.48,-0.96 1.76,-1.44 z"
             style="fill:#0000ff;fill-opacity:1;fill-rule:nonzero;stroke:none"
             id="path514" />
        </g>
        <g
           id="g516"
           transform="translate(180.48,119.84)">
          <path
             d="m 0,0 h -1.12 v -1.12 c 0,-0.16 0,-0.16 0,-0.16 0,0.16 -0.16,0.16 -0.16,0.32 -0.32,0.48 -0.8,1.12 -0.96,1.12 -0.16,0 -0.16,0.16 -0.16,0.16 0,0 0,0 0,0 h 0.64 v 3.2 c 0,0.96 0.16,1.28 0.8,1.28 0.48,0 0.8,-0.16 1.28,-0.64 L 0.16,4 C -0.16,4.32 -0.32,4.32 -0.48,4.32 -0.96,4.32 -1.12,4 -1.12,3.36 V 0.32 H 0 Z"
             style="fill:#0000ff;fill-opacity:1;fill-rule:nonzero;stroke:none"
             id="path518" />
        </g>
        <g
           id="g520"
           transform="translate(185.60001,124)">
          <path
             d="m 0,0 v 0 c -0.48,0 -0.64,-0.16 -0.64,-0.48 v -3.68 h -1.6 V -4 c 0.8,0.16 0.96,0.16 0.96,0.64 v 2.56 c 0,0.32 -0.16,0.48 -0.32,0.48 -0.32,0.32 -0.64,0.48 -0.96,0.48 -0.32,0 -0.8,-0.48 -0.8,-0.8 V -4.16 H -4.64 V -4 c 0.48,0 0.64,0.16 0.64,0.64 v 2.72 c 0,0.8 0.32,1.28 1.12,1.28 0.32,0 0.8,-0.16 1.12,-0.32 l 0.48,-0.48 v 0.8 0 C -0.8,0.48 -0.48,0.48 0,0.32 Z"
             style="fill:#0000ff;fill-opacity:1;fill-rule:nonzero;stroke:none"
             id="path522" />
        </g>
        <g
           id="g524"
           transform="translate(185.92,120.48)">
          <path
             d="m 0,0 c 0.16,0 0.32,-0.16 0.48,-0.16 0.16,0 0.32,0.32 0.32,0.64 V 3.2 C 0.8,3.68 0.64,3.84 0,3.84 V 4 H 2.4 V 3.84 C 1.76,3.84 1.6,3.68 1.6,3.2 V 0.8 C 1.6,0.48 1.92,-0.16 2.24,-0.16 2.4,-0.16 2.4,0 2.56,0 2.72,0.16 2.88,0.32 2.88,0.32 3.2,0.32 3.36,0 3.36,-0.16 3.36,-0.64 3.2,-0.64 2.72,-0.64 2.4,-0.64 2.08,-0.48 1.6,0.16 v -0.8 H 1.44 C 0.96,-0.48 0.64,-0.48 0,-0.16 Z"
             style="fill:#0000ff;fill-opacity:1;fill-rule:nonzero;stroke:none"
             id="path526" />
        </g>
        <g
           id="g528"
           transform="translate(193.60001,122.88)">
          <path
             d="M 0,0 C -0.48,0.8 -0.96,1.12 -1.6,1.12 -2.24,1.12 -2.72,0.8 -3.04,0.16 -3.2,-0.32 -3.2,-0.64 -3.2,-1.28 h 3.04 c 0,-0.64 -0.16,-0.96 -0.32,-1.28 -0.32,-0.48 -0.8,-0.64 -1.44,-0.64 -0.48,0 -0.96,0.16 -1.28,0.48 -0.48,0.48 -0.8,1.28 -0.8,2.08 0,1.6 0.8,2.4 1.92,2.4 0.96,0 1.76,-0.64 2.24,-1.76 z m -3.2,-1.6 c 0,-0.8 0.48,-1.28 1.12,-1.28 0.48,0 0.8,0.32 0.96,1.28 z"
             style="fill:#0000ff;fill-opacity:1;fill-rule:nonzero;stroke:none"
             id="path530" />
        </g>
        <g
           id="g532"
           transform="translate(84.480003,178.24)">
          <path
             d="m 0,0 c -2.08,0 -3.36,1.44 -3.36,3.52 0,1.12 0.32,2.08 0.8,2.72 0.64,0.64 1.44,0.96 2.4,0.96 C 1.92,7.2 3.36,5.76 3.36,3.68 3.36,2.56 3.04,1.6 2.56,0.96 1.92,0.32 0.96,0 0,0 Z M 0,0.32 C 0.48,0.32 0.96,0.48 1.28,0.8 1.92,1.28 2.24,2.4 2.24,3.68 2.24,4.32 2.08,4.96 1.92,5.6 1.76,5.76 1.6,6.08 1.28,6.24 0.96,6.72 0.48,6.88 0,6.88 -0.48,6.88 -0.96,6.72 -1.44,6.4 -1.92,5.92 -2.24,4.8 -2.24,3.68 -2.24,2.56 -2.08,1.44 -1.6,0.96 -1.12,0.48 -0.64,0.32 0,0.32 Z"
             style="fill:#0000ff;fill-opacity:1;fill-rule:nonzero;stroke:none"
             id="path534" />
        </g>
        <g
           id="g536"
           transform="translate(94.879997,185.11999)">
          <path
             d="M 0,0 C -0.32,0 -0.48,-0.16 -0.8,-0.48 L -2.88,-3.2 c 0.64,-0.16 0.96,-0.32 1.28,-0.48 0.32,-0.32 0.48,-0.8 0.48,-1.28 0,-0.48 -0.16,-0.8 -0.32,-1.12 -0.48,-0.48 -1.28,-0.64 -2.24,-0.64 h -2.88 v 0.16 c 0.8,0.16 0.8,0.16 0.8,0.96 v 4.48 c 0,0.96 0,0.96 -0.8,1.12 v 0.16 h 2.88 V 0 c -0.8,0 -0.96,-0.16 -0.96,-0.96 V -3.04 H -4 l 2.4,3.2 H 0 Z m -4.64,-6.08 c 0,-0.32 0.16,-0.32 0.64,-0.32 1.28,0 1.76,0.48 1.76,1.44 0,0.48 -0.16,0.96 -0.48,1.12 -0.48,0.32 -0.96,0.32 -1.92,0.32 z"
             style="fill:#0000ff;fill-opacity:1;fill-rule:nonzero;stroke:none"
             id="path538" />
        </g>
        <g
           id="g540"
           transform="translate(103.68,181.28)">
          <path
             d="m 0,0 v -0.48 h -0.96 c -0.16,0 -0.32,0 -0.48,-0.16 h -0.32 c -0.16,-0.16 -0.48,-0.16 -0.8,-0.16 -0.8,0 -1.6,0.8 -1.6,1.76 0,0.64 0.32,1.12 0.96,1.44 -0.16,0.16 -0.32,0.32 -0.48,0.32 -0.32,0.32 -0.48,0.48 -0.48,0.8 0,0.16 0.16,0.32 0.64,0.48 -0.8,0.48 -1.12,0.96 -1.12,1.28 0,0.64 0.8,0.96 1.76,0.96 0.8,0 1.6,-0.16 2.08,-0.64 0.48,-0.32 0.64,-0.64 0.64,-1.12 0,-0.64 -0.48,-0.96 -1.28,-1.12 h -1.28 c -0.48,0 -0.8,-0.16 -0.8,-0.32 0,-0.16 0.32,-0.48 0.64,-0.64 0,0.16 0.16,0.16 0.16,0.16 0.16,0 0.32,0 0.32,0 0.48,0 0.8,-0.16 1.12,-0.48 0.32,-0.32 0.48,-0.64 0.48,-1.28 0,-0.32 0,-0.48 -0.16,-0.8 z m -3.36,4 c 0.32,0 1.12,0.16 1.6,0.16 0.96,0 1.28,0.16 1.28,0.48 0,0.64 -0.8,1.12 -1.92,1.12 -0.96,0 -1.44,-0.32 -1.44,-0.8 0,-0.32 0,-0.48 0.48,-0.96 z m 0,-3.52 c 0,-0.64 0.32,-0.96 0.8,-0.96 0.32,0 0.48,0.16 0.64,0.48 0.16,0.32 0.32,0.8 0.32,1.28 0,0.64 -0.32,0.96 -0.8,0.96 -0.48,0 -0.96,-0.64 -0.96,-1.76 z"
             style="fill:#0000ff;fill-opacity:1;fill-rule:nonzero;stroke:none"
             id="path542" />
        </g>
        <g
           id="g544"
           transform="translate(104,181.11999)">
          <path
             d="M 0,0 C 0.16,0 0.16,0 0.32,0 0.64,0 0.64,0.16 0.64,0.64 V 3.2 C 0.64,3.84 0.64,3.84 0,4 V 4.16 H 2.4 V 4 C 1.6,4 1.44,3.84 1.44,3.2 V 0.8 C 1.44,0.48 1.92,0 2.24,0 c 0,0 0.16,0 0.16,0.16 0.32,0.16 0.32,0.16 0.48,0.16 0.32,0 0.48,-0.16 0.48,-0.48 0,-0.32 -0.32,-0.48 -0.64,-0.48 -0.48,0 -0.8,0.16 -1.28,0.96 v -0.96 0 C 0.96,-0.48 0.64,-0.32 0,-0.16 Z"
             style="fill:#0000ff;fill-opacity:1;fill-rule:nonzero;stroke:none"
             id="path546" />
        </g>
        <g
           id="g548"
           transform="translate(109.92,180.48)">
          <path
             d="m 0,0 c -1.44,0 -2.24,0.96 -2.24,2.4 0,1.44 0.8,2.56 2.24,2.56 C 1.44,4.96 2.24,3.84 2.24,2.4 2.24,0.96 1.44,0 0,0 Z m -0.16,0.32 c 0.96,0 1.6,0.96 1.6,2.4 C 1.44,4 0.96,4.64 0.16,4.64 -0.32,4.64 -0.8,4.32 -0.96,4 -1.28,3.36 -1.44,2.72 -1.44,1.92 c 0,-0.96 0.48,-1.6 1.28,-1.6 z"
             style="fill:#0000ff;fill-opacity:1;fill-rule:nonzero;stroke:none"
             id="path550" />
        </g>
        <g
           id="g552"
           transform="translate(117.44,184.8)">
          <path
             d="m 0,0 v 0 c -0.48,0 -0.64,-0.16 -0.64,-0.64 v -3.52 h -1.6 V -4 c 0.64,0 0.8,0.16 0.8,0.64 v 2.4 c 0,0.32 0,0.48 -0.16,0.64 C -1.92,-0.16 -2.24,0 -2.56,0 -3.04,0 -3.36,-0.32 -3.36,-0.8 V -4.16 H -4.8 V -4 c 0.48,0 0.64,0.16 0.64,0.64 v 2.56 c 0,0.96 0.48,1.44 1.28,1.44 0.32,0 0.8,-0.16 1.12,-0.48 l 0.48,-0.48 v 0.96 0 C -0.8,0.48 -0.48,0.32 0,0.16 Z"
             style="fill:#0000ff;fill-opacity:1;fill-rule:nonzero;stroke:none"
             id="path554" />
        </g>
        <g
           id="g556"
           transform="translate(117.76,181.28)">
          <path
             d="M 0,0 C 0.16,0 0.16,0 0.32,0 0.64,0 0.8,0 0.8,0.48 V 5.44 C 0.8,5.92 0.64,6.08 0,6.08 V 6.24 H 2.4 V 6.08 C 1.6,6.08 1.44,5.92 1.44,5.28 V 3.68 C 1.92,4 2.08,4.16 2.56,4.16 3.84,4.16 4.64,3.04 4.64,1.44 4.64,0.16 4,-0.8 3.04,-0.8 2.4,-0.8 1.92,-0.48 1.44,0 v -0.8 0 C 0.96,-0.64 0.64,-0.48 0,-0.32 Z M 1.44,0.48 C 1.44,0.16 2.08,-0.16 2.56,-0.16 3.36,-0.16 4,0.64 4,1.92 4,3.04 3.36,3.84 2.56,3.84 2.08,3.84 1.44,3.52 1.44,3.2 Z"
             style="fill:#0000ff;fill-opacity:1;fill-rule:nonzero;stroke:none"
             id="path558" />
        </g>
        <g
           id="g560"
           transform="translate(304,188.64)">
          <path
             d="M 0,0 C -0.16,0.16 -0.32,0.16 -0.48,0.16 -0.64,0.16 -0.8,0 -0.8,-0.48 v -2.08 c 0,-0.48 0,-0.8 -0.16,-1.12 C -1.12,-4 -1.6,-4.32 -2.24,-4.32 -3.2,-4.32 -4,-3.68 -4,-3.04 c 0,0.16 0.16,0.48 0.48,0.48 0.16,0 0.32,-0.32 0.32,-0.48 0,0 0,-0.16 0,-0.16 0,-0.16 0,-0.16 0,-0.32 0,-0.32 0.32,-0.48 0.8,-0.48 0.48,0 0.8,0.32 0.8,0.8 v 0.8 c -1.6,0.64 -1.76,0.64 -2.24,1.12 -0.16,0.16 -0.32,0.48 -0.32,0.96 0,0.48 0.48,0.96 0.96,0.96 0.48,0 0.96,-0.16 1.6,-0.8 0.16,0.64 0.32,0.8 0.64,0.8 0.32,0 0.64,-0.16 0.96,-0.48 z m -1.6,-0.64 c 0,0.32 0,0.32 -0.32,0.48 C -2.08,0 -2.4,0 -2.72,0 -3.04,0 -3.36,-0.32 -3.36,-0.8 v 0 c 0,-0.64 0.48,-0.96 1.76,-1.44 z"
             style="fill:#0000ff;fill-opacity:1;fill-rule:nonzero;stroke:none"
             id="path562" />
        </g>
        <g
           id="g564"
           transform="translate(304.32001,182.72)">
          <path
             d="M 0,0 V 0 C 0.16,0 0.32,0 0.32,0 0.64,0 0.8,0.16 0.8,0.64 V 5.6 C 0.8,6.08 0.64,6.24 0,6.24 V 6.4 H 2.4 V 6.24 C 1.76,6.24 1.6,6.08 1.6,5.6 v -6.24 0 C 1.12,-0.48 0.64,-0.32 0,-0.16 Z"
             style="fill:#0000ff;fill-opacity:1;fill-rule:nonzero;stroke:none"
             id="path566" />
        </g>
        <g
           id="g568"
           transform="translate(309.60001,184.48)">
          <path
             d="m 0,0 h -1.12 v -1.12 c 0,-0.16 0,-0.16 -0.16,-0.16 0,0 0,0.16 -0.16,0.32 -0.32,0.48 -0.8,0.96 -0.96,1.12 -0.16,0 -0.16,0 -0.16,0.16 0,0 0,0 0,0 h 0.64 v 3.2 c 0,0.96 0.32,1.28 0.8,1.28 0.48,0 0.96,-0.16 1.28,-0.8 L 0,4 C -0.16,4.16 -0.32,4.32 -0.64,4.32 -0.96,4.32 -1.12,4 -1.12,3.36 V 0.32 H 0 Z"
             style="fill:#0000ff;fill-opacity:1;fill-rule:nonzero;stroke:none"
             id="path570" />
        </g>
        <g
           id="g572"
           transform="translate(313.92001,187.52)">
          <path
             d="M 0,0 C -0.48,0.8 -0.96,0.96 -1.6,0.96 -2.24,0.96 -2.56,0.8 -2.88,0.16 -3.04,-0.32 -3.2,-0.64 -3.2,-1.28 H 0 c -0.16,-0.64 -0.16,-0.96 -0.48,-1.28 -0.32,-0.48 -0.8,-0.64 -1.28,-0.64 -0.48,0 -0.96,0.16 -1.44,0.48 -0.48,0.48 -0.8,1.28 -0.8,2.08 0,1.44 0.8,2.4 2.08,2.4 0.96,0 1.6,-0.64 2.08,-1.76 z m -3.2,-1.6 c 0.16,-0.8 0.48,-1.28 1.12,-1.28 0.64,0 0.96,0.32 0.96,1.28 z"
             style="fill:#0000ff;fill-opacity:1;fill-rule:nonzero;stroke:none"
             id="path574" />
        </g>
        <g
           id="g576"
           transform="translate(314.39999,185.11999)">
          <path
             d="M 0,0 C 0.16,-0.16 0.32,-0.16 0.32,-0.16 0.64,-0.16 0.8,0 0.8,0.48 V 3.2 C 0.8,3.68 0.64,3.68 0,3.84 V 4 H 2.4 V 3.84 C 1.76,3.84 1.44,3.68 1.44,3.04 v -2.4 c 0,-0.32 0.48,-0.8 0.8,-0.8 0,0 0.16,0 0.32,0.16 0.16,0.16 0.16,0.16 0.32,0.16 0.32,0 0.48,-0.16 0.48,-0.48 0,-0.32 -0.32,-0.48 -0.64,-0.48 -0.48,0 -0.64,0.16 -1.28,0.96 v -0.96 0 C 0.96,-0.64 0.64,-0.48 0,-0.32 Z"
             style="fill:#0000ff;fill-opacity:1;fill-rule:nonzero;stroke:none"
             id="path578" />
        </g>
        <g
           id="g580"
           transform="translate(317.92001,184.96001)">
          <path
             d="M 0,0 C 0,0 0.16,0 0.32,0 0.48,0 0.64,0.16 0.64,0.64 V 3.2 C 0.64,3.84 0.48,4 0,4 V 4.16 H 2.08 V 4 C 1.6,4 1.44,3.84 1.44,3.52 V 0.48 C 1.92,0 2.24,-0.16 2.56,-0.16 c 0.48,0 0.8,0.32 0.8,1.12 V 3.2 C 3.36,3.84 3.2,4 2.72,4 V 4.16 H 4.8 V 4 C 4.32,4 4.16,3.84 4.16,3.36 v -2.4 c 0,-1.12 -0.48,-1.6 -1.12,-1.6 -0.48,0 -0.96,0.16 -1.6,0.8 V -0.48 L 1.28,-0.64 C 0.96,-0.48 0.48,-0.32 0,-0.16 Z"
             style="fill:#0000ff;fill-opacity:1;fill-rule:nonzero;stroke:none"
             id="path582" />
        </g>
        <g
           id="g584"
           transform="translate(327.51999,188.64)">
          <path
             d="M 0,0 C -0.16,0.16 -0.32,0.16 -0.48,0.16 -0.64,0.16 -0.8,0 -0.8,-0.48 v -2.08 c 0,-0.48 0,-0.8 -0.16,-1.12 C -1.12,-4 -1.6,-4.32 -2.24,-4.32 -3.2,-4.32 -4,-3.68 -4,-3.04 c 0,0.16 0.32,0.48 0.48,0.48 0.16,0 0.48,-0.32 0.48,-0.48 0,0 0,-0.16 -0.16,-0.16 0,-0.16 0,-0.16 0,-0.32 0,-0.32 0.32,-0.48 0.8,-0.48 0.64,0 0.8,0.32 0.8,0.8 v 0.8 c -1.6,0.64 -1.76,0.64 -2.24,1.12 -0.16,0.16 -0.32,0.48 -0.32,0.96 0,0.48 0.48,0.96 0.96,0.96 0.48,0 0.96,-0.16 1.6,-0.8 0.16,0.64 0.32,0.8 0.64,0.8 0.32,0 0.64,-0.16 0.96,-0.48 z m -1.6,-0.64 c 0,0.32 0,0.32 -0.16,0.48 C -2.08,0 -2.4,0 -2.56,0 c -0.48,0 -0.8,-0.32 -0.8,-0.8 v 0 c 0,-0.64 0.48,-0.96 1.76,-1.44 z"
             style="fill:#0000ff;fill-opacity:1;fill-rule:nonzero;stroke:none"
             id="path586" />
        </g>
        <g
           id="g588"
           transform="translate(330.23999,184.48)">
          <path
             d="m 0,0 h -1.12 v -1.12 c 0,-0.16 0,-0.16 0,-0.16 -0.16,0 -0.16,0.16 -0.32,0.32 -0.32,0.48 -0.64,0.96 -0.96,1.12 0,0 -0.16,0 -0.16,0.16 0,0 0,0 0,0 h 0.64 v 3.2 c 0,0.96 0.32,1.28 0.8,1.28 0.48,0 0.96,-0.16 1.28,-0.8 L 0,4 C -0.16,4.16 -0.32,4.32 -0.64,4.32 -0.96,4.32 -1.12,4 -1.12,3.36 V 0.32 H 0 Z"
             style="fill:#0000ff;fill-opacity:1;fill-rule:nonzero;stroke:none"
             id="path590" />
        </g>
        <g
           id="g592"
           transform="translate(332.16,184.32001)">
          <path
             d="M 0,0 -1.6,0.64 V 0.8 h 0.16 c 0,0 0.16,0 0.32,0 0.16,0 0.32,0.16 0.32,0.64 v 2.4 c 0,0.64 -0.16,0.8 -0.8,0.8 V 4.8 H 0.8 V 4.64 C 0,4.64 0,4.48 0,3.84 Z m -0.48,-2.24 c -0.16,0 -0.48,0.32 -0.48,0.48 0,0.32 0.32,0.64 0.48,0.64 0.32,0 0.64,-0.32 0.64,-0.64 0,-0.16 -0.32,-0.48 -0.64,-0.48 z"
             style="fill:#0000ff;fill-opacity:1;fill-rule:nonzero;stroke:none"
             id="path594" />
        </g>
        <g
           id="g596"
           transform="translate(337.92001,184.48)">
          <path
             d="m 0,0 h -1.44 v 0.16 c 0.32,0 0.48,0.16 0.48,0.32 0,0.16 0,0.16 0,0.32 L -2.08,3.52 -3.04,0.8 C -3.2,0.64 -3.2,0.48 -3.2,0.48 -3.2,0.32 -3.04,0.16 -2.72,0.16 V 0 h -1.92 v 0.16 c 0.32,0 0.32,0.16 0.8,1.12 l 1.28,3.04 c 0,0.16 0,0.16 0.16,0.32 0,0.16 0,0.16 0.16,0.16 0,0 0.16,-0.16 0.32,-0.48 L -0.64,0.96 C -0.32,0.32 -0.32,0.16 0,0.16 Z"
             style="fill:#0000ff;fill-opacity:1;fill-rule:nonzero;stroke:none"
             id="path598" />
        </g>
        <g
           id="g600"
           transform="translate(342.23999,187.52)">
          <path
             d="M 0,0 C -0.48,0.8 -0.96,0.96 -1.6,0.96 -2.24,0.96 -2.56,0.8 -2.88,0.16 -3.2,-0.32 -3.2,-0.64 -3.2,-1.28 H 0 c -0.16,-0.64 -0.16,-0.96 -0.48,-1.28 -0.32,-0.48 -0.8,-0.64 -1.28,-0.64 -0.48,0 -1.12,0.16 -1.44,0.48 -0.48,0.48 -0.8,1.28 -0.8,2.08 0,1.44 0.8,2.4 1.92,2.4 0.96,0 1.76,-0.64 2.24,-1.76 z m -3.2,-1.6 c 0.16,-0.8 0.48,-1.28 1.12,-1.28 0.64,0 0.8,0.32 0.96,1.28 z"
             style="fill:#0000ff;fill-opacity:1;fill-rule:nonzero;stroke:none"
             id="path602" />
        </g>
        <g
           id="g604"
           transform="translate(351.04001,185.11999)">
          <path
             d="m 0,0 v -0.48 h -0.8 c -0.16,0 -0.32,0 -0.48,0 L -1.6,-0.64 C -1.76,-0.64 -2.08,-0.8 -2.4,-0.8 -3.2,-0.8 -4,0 -4,0.96 -4,1.6 -3.68,2.08 -3.04,2.4 -3.2,2.56 -3.52,2.72 -3.52,2.88 -3.84,3.04 -4,3.36 -4,3.52 c 0,0.16 0.16,0.32 0.64,0.48 -0.8,0.48 -1.12,0.96 -1.12,1.28 0,0.64 0.8,0.96 1.76,0.96 0.8,0 1.6,-0.16 2.08,-0.64 C -0.16,5.28 0,4.96 0,4.48 0,3.84 -0.48,3.52 -1.28,3.52 L -2.56,3.36 c -0.64,0 -0.8,0 -0.8,-0.16 0,-0.32 0.32,-0.64 0.64,-0.64 0,0 0.16,0 0.16,0 0.16,0 0.32,0 0.32,0 0.32,0 0.8,-0.16 1.12,-0.48 0.32,-0.32 0.48,-0.64 0.48,-1.12 0,-0.32 0,-0.64 -0.16,-0.96 z m -3.2,4 c 0.32,0 1.12,0.16 1.6,0.16 0.8,0 1.28,0.16 1.28,0.48 0,0.64 -0.8,1.12 -1.92,1.12 -0.96,0 -1.44,-0.32 -1.44,-0.8 0,-0.32 0,-0.48 0.48,-0.96 z m 0,-3.52 c 0,-0.64 0.32,-0.96 0.8,-0.96 0.32,0 0.48,0.16 0.64,0.48 0.16,0.48 0.32,0.96 0.32,1.28 0,0.64 -0.32,0.96 -0.8,0.96 -0.48,0 -0.96,-0.64 -0.96,-1.6 z"
             style="fill:#0000ff;fill-opacity:1;fill-rule:nonzero;stroke:none"
             id="path606" />
        </g>
        <g
           id="g608"
           transform="translate(351.51999,185.11999)">
          <path
             d="m 0,0 c 0.16,-0.16 0.16,-0.16 0.32,-0.16 0.32,0 0.32,0.16 0.32,0.64 V 3.2 c 0,0.48 0,0.48 -0.64,0.64 V 4 H 2.4 V 3.84 C 1.6,3.84 1.44,3.68 1.44,3.04 v -2.4 c 0,-0.32 0.48,-0.8 0.8,-0.8 0,0 0.16,0 0.16,0.16 C 2.56,0.16 2.72,0.16 2.88,0.16 3.2,0.16 3.2,0 3.2,-0.32 3.2,-0.64 3.04,-0.8 2.72,-0.8 c -0.48,0 -0.8,0.16 -1.28,0.96 v -0.96 0 C 0.96,-0.64 0.64,-0.48 0,-0.32 Z"
             style="fill:#0000ff;fill-opacity:1;fill-rule:nonzero;stroke:none"
             id="path610" />
        </g>
        <g
           id="g612"
           transform="translate(357.44,184.32001)">
          <path
             d="m 0,0 c -1.44,0 -2.24,1.12 -2.24,2.56 0,1.28 0.8,2.4 2.24,2.4 C 1.28,4.96 2.24,3.84 2.24,2.4 2.24,0.96 1.44,0 0,0 Z m -0.16,0.32 c 0.96,0 1.6,0.96 1.6,2.4 C 1.44,4 0.96,4.64 0,4.64 -0.32,4.64 -0.8,4.48 -0.96,4 -1.28,3.52 -1.44,2.72 -1.44,1.92 c 0,-0.96 0.48,-1.6 1.28,-1.6 z"
             style="fill:#0000ff;fill-opacity:1;fill-rule:nonzero;stroke:none"
             id="path614" />
        </g>
        <g
           id="g616"
           transform="translate(364.95999,188.64)">
          <path
             d="m 0,0 v 0 c -0.48,0 -0.64,-0.16 -0.64,-0.64 v -3.52 h -1.6 V -4 c 0.64,0 0.8,0.16 0.8,0.64 v 2.56 c 0,0.16 0,0.32 -0.16,0.48 C -1.92,0 -2.24,0 -2.56,0 -3.04,0 -3.36,-0.32 -3.36,-0.8 V -4.16 H -4.8 V -4 c 0.48,0 0.64,0.16 0.64,0.64 v 2.72 c 0,0.8 0.48,1.28 1.28,1.28 0.32,0 0.8,-0.16 1.12,-0.48 l 0.32,-0.32 v 0.8 h 0.16 C -0.8,0.48 -0.48,0.32 0,0.16 Z"
             style="fill:#0000ff;fill-opacity:1;fill-rule:nonzero;stroke:none"
             id="path618" />
        </g>
        <g
           id="g620"
           transform="translate(365.28,185.11999)">
          <path
             d="m 0,0 c 0.16,0 0.16,0 0.32,0 0.32,0 0.32,0 0.32,0.64 v 4.8 c 0,0.48 0,0.64 -0.64,0.64 V 6.24 H 2.4 V 6.08 C 1.6,6.08 1.44,5.92 1.44,5.28 V 3.84 C 1.92,4.16 2.08,4.16 2.56,4.16 3.84,4.16 4.64,3.04 4.64,1.44 4.64,0.16 4,-0.8 3.04,-0.8 2.4,-0.8 1.92,-0.48 1.44,0 v -0.8 0 C 0.96,-0.48 0.64,-0.48 0,-0.32 Z m 1.44,0.48 c 0,-0.32 0.64,-0.64 1.12,-0.64 0.8,0 1.28,0.8 1.28,2.08 0,1.12 -0.48,1.92 -1.28,1.92 C 2.08,3.84 1.44,3.52 1.44,3.2 Z"
             style="fill:#0000ff;fill-opacity:1;fill-rule:nonzero;stroke:none"
             id="path622" />
        </g>
        <g
           id="g624"
           transform="translate(120,150.39999)">
          <path
             d="M 0,0 0.8,0.64 0.16,1.44 -0.64,0.8 Z M 2.72,2.24 3.52,2.88 2.88,3.68 2.08,3.04 Z M 5.6,4.64 6.4,5.28 5.76,6.08 4.96,5.44 Z m 2.72,2.24 0.8,0.64 -0.64,0.8 -0.8,-0.64 z m 2.72,2.4 0.8,0.64 -0.64,0.8 -0.8,-0.64 z m 2.88,2.24 0.32,0.32 -0.64,0.8 -0.32,-0.32 z"
             style="fill:#0000ff;fill-opacity:1;fill-rule:nonzero;stroke:none"
             id="path626" />
        </g>
        <g
           id="g628"
           transform="translate(162.88,131.2)">
          <path
             d="M 0,0 0.16,1.12 -0.8,1.28 -0.96,0.16 Z M 0.64,3.68 0.8,4.64 -0.32,4.8 -0.48,3.84 Z M 1.12,7.2 1.28,8.16 0.32,8.32 0.16,7.36 Z M 1.76,10.72 1.92,11.84 0.96,12 0.8,10.88 Z M 2.4,14.4 2.56,15.36 1.6,15.52 1.44,14.56 Z M 3.04,17.92 3.2,18.879999 2.08,19.040001 1.92,18.08 Z"
             style="fill:#0000ff;fill-opacity:1;fill-rule:nonzero;stroke:none"
             id="path630" />
        </g>
        <g
           id="g632"
           transform="translate(127.36,181.75999)">
          <path
             d="M 0,0 1.12,-0.16 V 0.96 H 0 Z M 3.68,-0.16 H 4.64 V 0.8 L 3.68,0.96 Z M 7.2,-0.32 H 8.32 V 0.8 H 7.36 Z m 3.68,0 h 0.96 L 12,0.64 h -1.12 z m 3.68,-0.16 h 0.96 v 1.12 h -0.96 z m 3.52,0 h 1.120001 V 0.48 H 18.08 Z m 3.68,-0.16 h 0.959999 V 0.32 L 21.76,0.48 Z m 3.520001,0 L 26.4,-0.8 v 1.12 h -0.959999 z"
             style="fill:#0000ff;fill-opacity:1;fill-rule:nonzero;stroke:none"
             id="path634" />
        </g>
        <g
           id="g636"
           transform="translate(294.72,184)">
          <path
             d="m 0,0 -0.96,-0.16 0.16,-0.96 h 0.96 z m -3.52,-0.32 -1.12,-0.16 0.16,-0.96 h 0.96 z M -7.2,-0.64 -8.16,-0.8 v -0.96 h 1.12 z m -3.52,-0.32 -1.12,-0.16 0.16,-0.96 0.96,0.16 z m -3.68,-0.32 h -0.96 V -2.4 l 1.12,0.16 z m -3.52,-0.32 h -0.32 l 0.16,-0.96 h 0.16 z"
             style="fill:#0000ff;fill-opacity:1;fill-rule:nonzero;stroke:none"
             id="path638" />
        </g>
        <g
           id="g640"
           transform="translate(214.24,226.24)">
          <path
             d="m 0,0 c 0,-0.32 0,-0.48 -0.32,-0.48 h -4.96 c -0.32,0 -0.48,0 -0.48,0.32 C -5.76,0 -5.6,0 -5.28,0 h 4.96 v 1.92 c 0,0.32 0,0.32 0.16,0.32 C 0,2.24 0,2.24 0,1.92 Z"
             style="fill:#000000;fill-opacity:1;fill-rule:nonzero;stroke:none"
             id="path642" />
        </g>
        <g
           id="g644"
           transform="translate(216.8,229.44)">
          <path
             d="M 0,0 H 2.88 C 4.16,0 4.8,-0.16 5.28,-0.8 5.92,-1.44 6.24,-2.56 6.24,-3.68 6.24,-4.96 5.92,-5.92 5.28,-6.72 4.8,-7.2 4.16,-7.52 2.88,-7.52 H 0 Z m 1.44,-1.12 v -5.12 h 1.44 c 1.28,0 1.92,0.8 1.92,2.56 0,1.6 -0.64,2.56 -1.92,2.56 z"
             style="fill:#000000;fill-opacity:1;fill-rule:nonzero;stroke:none"
             id="path646" />
        </g>
        <g
           id="g648"
           transform="translate(224.96001,224.16)">
          <path
             d="M 0,0 H -0.8 V 5.28 H 0 Z m -0.16,-2.24 h -0.8 v 1.12 h 0.8 z"
             style="fill:#000000;fill-opacity:1;fill-rule:nonzero;stroke:none"
             id="path650" />
        </g>
        <g
           id="g652"
           transform="translate(226.39999,231.67999)">
          <path
             d="m 0,0 h 0.8 v -2.88 c 0.32,0.64 0.96,0.8 1.6,0.8 1.44,0 2.24,-1.12 2.24,-2.72 0,-1.92 -0.8,-3.04 -2.24,-3.04 -0.8,0 -1.44,0.32 -1.76,0.96 v -0.8 h -0.8 z m 2.24,-7.04 c 0.96,0 1.6,0.96 1.6,2.24 0,1.12 -0.64,1.92 -1.6,1.92 -0.96,0 -1.44,-0.8 -1.44,-2.08 0,-1.28 0.48,-2.08 1.44,-2.08 z"
             style="fill:#000000;fill-opacity:1;fill-rule:nonzero;stroke:none"
             id="path654" />
        </g>
        <g
           id="g656"
           transform="translate(235.84,225.60001)">
          <path
             d="m 0,0 c 0,-1.12 -0.64,-1.76 -1.92,-1.76 -1.28,0 -1.92,0.64 -1.92,1.76 0,0.8 0.32,1.12 1.6,1.44 l 0.8,0.16 c 0.64,0.16 0.96,0.48 0.96,0.8 0,0.48 -0.64,0.8 -1.44,0.8 -0.48,0 -0.8,0 -1.12,-0.32 C -3.2,2.72 -3.2,2.56 -3.2,2.24 H -4 C -4,3.52 -3.36,4 -1.92,4 -0.48,4 0.16,3.36 0.16,2.4 0.16,1.6 -0.16,1.12 -1.28,0.8 l -0.8,-0.16 c -0.8,-0.16 -1.12,-0.32 -1.12,-0.8 0,-0.48 0.48,-0.8 1.28,-0.8 0.8,0 1.12,0.32 1.12,0.96 z"
             style="fill:#000000;fill-opacity:1;fill-rule:nonzero;stroke:none"
             id="path658" />
        </g>
        <g
           id="g660"
           transform="translate(188.96001,240)">
          <path
             d="m 0,0 c 0,-0.8 -0.16,-1.12 -0.48,-1.6 -0.64,-0.64 -1.44,-1.12 -2.56,-1.12 -2.24,0 -3.36,1.44 -3.36,4 0,2.4 1.12,3.84 3.2,3.84 C -1.28,5.12 0,4.16 0,2.4 H -1.44 C -1.6,3.36 -2.08,4 -3.04,4 -4.32,4 -4.96,2.88 -4.96,1.28 c 0,-1.76 0.64,-2.72 1.92,-2.72 0.48,0 0.96,0.16 1.28,0.48 0.16,0.32 0.16,0.48 0.32,0.96 z"
             style="fill:#000000;fill-opacity:1;fill-rule:nonzero;stroke:none"
             id="path662" />
        </g>
        <g
           id="g664"
           transform="translate(190.24,237.44)">
          <path
             d="M 0,0 V 7.52 H 0.8 V 4.48 c 0,-1.12 0.64,-1.92 1.6,-1.92 0.16,0 0.48,0.16 0.64,0.32 0.32,0.16 0.32,0.48 0.32,0.8 v 3.84 h 0.8 V 3.36 C 4.16,2.4 3.68,2.08 2.56,2.08 1.76,2.08 1.44,2.24 0.8,2.72 V 0 Z"
             style="fill:#000000;fill-opacity:1;fill-rule:nonzero;stroke:none"
             id="path666" />
        </g>
        <g
           id="g668"
           transform="translate(200.48,242.56)">
          <path
             d="m 0,0 c 0,-0.8 0,-1.28 -0.16,-1.76 -0.32,-0.8 -1.12,-1.44 -2.24,-1.44 -1.44,0 -2.4,1.28 -2.4,3.04 0,1.76 0.96,2.72 2.4,2.72 1.28,0 2.08,-0.64 2.4,-1.76 H -0.96 C -1.12,1.44 -1.6,1.76 -2.4,1.76 -2.88,1.76 -3.36,1.6 -3.68,1.12 -3.84,0.8 -3.84,0.48 -3.84,0 Z m -3.84,-0.64 c 0,-0.96 0.64,-1.76 1.44,-1.76 0.96,0 1.6,0.8 1.6,1.76 0,0 0,0 0,0 z"
             style="fill:#000000;fill-opacity:1;fill-rule:nonzero;stroke:none"
             id="path670" />
        </g>
        <g
           id="g672"
           transform="translate(206.24,242.56)">
          <path
             d="m 0,0 c 0,-0.8 0,-1.28 -0.16,-1.76 -0.32,-0.8 -1.12,-1.44 -2.24,-1.44 -1.44,0 -2.4,1.28 -2.4,3.04 0,1.76 0.96,2.72 2.4,2.72 1.28,0 2.08,-0.64 2.4,-1.76 H -0.96 C -1.12,1.44 -1.6,1.76 -2.4,1.76 -2.88,1.76 -3.36,1.6 -3.68,1.12 -3.84,0.8 -3.84,0.48 -4,0 Z m -3.84,-0.64 c 0,-0.96 0.64,-1.76 1.44,-1.76 0.96,0 1.6,0.8 1.6,1.76 0,0 0,0 0,0 z"
             style="fill:#000000;fill-opacity:1;fill-rule:nonzero;stroke:none"
             id="path674" />
        </g>
        <g
           id="g676"
           transform="translate(211.2,241.11999)">
          <path
             d="M 0,0 C 0,-1.12 -0.64,-1.76 -1.92,-1.76 -3.2,-1.76 -4,-1.12 -4,0 c 0,0.8 0.48,1.12 1.6,1.44 l 0.96,0.16 c 0.64,0.16 0.8,0.48 0.8,0.8 0,0.48 -0.48,0.8 -1.28,0.8 C -2.4,3.2 -2.88,3.04 -3.04,2.88 -3.2,2.72 -3.2,2.56 -3.36,2.24 h -0.8 C -4,3.36 -3.36,4 -2.08,4 -0.64,4 0.16,3.36 0.16,2.4 0.16,1.6 -0.16,1.12 -1.28,0.8 l -0.8,-0.16 c -0.8,-0.16 -1.12,-0.32 -1.12,-0.8 0,-0.48 0.48,-0.8 1.28,-0.8 0.64,0 1.12,0.32 1.12,0.96 z"
             style="fill:#000000;fill-opacity:1;fill-rule:nonzero;stroke:none"
             id="path678" />
        </g>
        <g
           id="g680"
           transform="translate(217.28,242.56)">
          <path
             d="m 0,0 c 0,-0.8 -0.16,-1.28 -0.32,-1.76 -0.32,-0.8 -1.12,-1.44 -2.08,-1.44 -1.6,0 -2.56,1.28 -2.56,3.04 0,1.76 0.96,2.72 2.4,2.72 1.28,0 2.24,-0.64 2.4,-1.76 H -1.12 C -1.28,1.44 -1.76,1.76 -2.4,1.76 -3.04,1.76 -3.52,1.6 -3.84,1.12 -4,0.8 -4,0.48 -4,0 Z m -4,-0.64 c 0,-0.96 0.64,-1.76 1.44,-1.76 0.96,0 1.6,0.8 1.6,1.76 0,0 0,0 0,0 z"
             style="fill:#000000;fill-opacity:1;fill-rule:nonzero;stroke:none"
             id="path682" />
        </g>
        <g
           id="g684"
           transform="translate(225.44,241.11999)">
          <path
             d="M 0,0 C 0.64,-0.64 0.96,-1.44 0.96,-1.44 0.96,-1.6 0.8,-1.6 0.64,-1.6 c -0.16,0 -0.16,0 -0.16,0.32 -0.48,0.96 -1.28,1.92 -2.56,2.4 -0.16,0.16 -0.16,0.16 -0.16,0.16 0,0 0,0.16 0,0.16 0,0 0,0 0.16,0 1.28,0.64 2.08,1.44 2.56,2.72 0,0 0.16,0 0.16,0 0.16,0 0.32,0 0.32,0 C 0.96,4 0.64,3.2 0,2.56 H 5.12 C 4.48,3.2 4.16,4 4.16,4.16 c 0,0 0.16,0 0.32,0 0,0 0,0 0.16,-0.16 0.48,-0.96 1.12,-1.92 2.56,-2.56 0.16,0 0.16,0 0.16,-0.16 0,0 0,0 0,0 0,0 0,0 -0.16,-0.16 C 5.92,0.64 5.12,-0.32 4.64,-1.44 4.64,-1.6 4.48,-1.6 4.48,-1.6 c -0.16,0 -0.32,0 -0.32,0.16 0,0 0.32,0.8 0.96,1.44 z M -0.32,2.08 C -0.64,1.76 -1.12,1.6 -1.44,1.28 -0.96,0.96 -0.64,0.64 -0.32,0.48 H 5.44 C 5.76,0.8 6.08,1.12 6.56,1.28 6.08,1.6 5.76,1.92 5.44,2.08 Z"
             style="fill:#000000;fill-opacity:1;fill-rule:nonzero;stroke:none"
             id="path686" />
        </g>
        <g
           id="g688"
           transform="translate(240.64,241.75999)">
          <path
             d="M 0,0 H 3.52 V -1.28 H 0 V -3.04 H 3.84 V -4.32 H -1.44 V 3.2 H 4 V 2.08 H 0 Z"
             style="fill:#000000;fill-opacity:1;fill-rule:nonzero;stroke:none"
             id="path690" />
        </g>
        <g
           id="g692"
           transform="translate(249.60001,241.11999)">
          <path
             d="m 0,0 c 0,-1.12 -0.48,-1.76 -1.92,-1.76 -1.28,0 -1.92,0.64 -1.92,1.76 0,0.8 0.32,1.12 1.6,1.44 l 0.8,0.16 c 0.64,0.16 0.96,0.48 0.96,0.8 0,0.48 -0.64,0.8 -1.28,0.8 C -2.4,3.2 -2.72,3.04 -3.04,2.88 -3.04,2.72 -3.2,2.56 -3.2,2.24 H -4 C -4,3.36 -3.36,4 -1.92,4 -0.48,4 0.32,3.36 0.32,2.4 0.32,1.6 -0.16,1.12 -1.12,0.8 L -2.08,0.64 c -0.64,-0.16 -0.96,-0.32 -0.96,-0.8 0,-0.48 0.48,-0.8 1.12,-0.8 0.8,0 1.12,0.32 1.12,0.96 z"
             style="fill:#000000;fill-opacity:1;fill-rule:nonzero;stroke:none"
             id="path694" />
        </g>
        <g
           id="g696"
           transform="translate(251.03999,247.2)">
          <path
             d="m 0,0 h 0.8 v -2.88 c 0.48,0.64 0.96,0.8 1.6,0.8 1.44,0 2.24,-1.12 2.24,-2.72 0,-1.92 -0.8,-3.04 -2.24,-3.04 -0.8,0 -1.28,0.32 -1.76,0.96 v -0.8 h -0.8 z m 2.24,-7.04 c 0.96,0 1.6,0.8 1.6,2.08 0,1.28 -0.64,2.08 -1.6,2.08 -0.8,0 -1.44,-0.8 -1.44,-2.08 0,-1.28 0.64,-2.08 1.44,-2.08 z"
             style="fill:#000000;fill-opacity:1;fill-rule:nonzero;stroke:none"
             id="path698" />
        </g>
        <g
           id="g700"
           transform="translate(256.79999,239.52)">
          <path
             d="m 0,0 0.16,5.44 h 0.8 V 2.72 C 0.96,1.92 1.12,1.28 1.6,1.12 1.76,0.8 2.08,0.8 2.72,0.8 V 0 C 2.4,0 2.4,-0.16 2.24,-0.16 1.76,-0.16 1.28,0.16 0.8,0.96 V 0 Z"
             style="fill:#000000;fill-opacity:1;fill-rule:nonzero;stroke:none"
             id="path702" />
        </g>
        <g
           id="g704"
           transform="translate(264.95999,242.56)">
          <path
             d="m 0,0 c 0,-0.8 -0.16,-1.28 -0.32,-1.76 -0.32,-0.8 -1.12,-1.44 -2.08,-1.44 -1.6,0 -2.56,1.28 -2.56,3.04 0,1.76 0.96,2.72 2.4,2.72 1.28,0 2.24,-0.64 2.4,-1.76 H -1.12 C -1.28,1.44 -1.76,1.76 -2.4,1.76 -3.04,1.76 -3.52,1.6 -3.84,1.12 -4,0.8 -4,0.48 -4,0 Z m -4,-0.64 c 0,-0.96 0.64,-1.76 1.44,-1.76 0.96,0 1.6,0.8 1.6,1.76 0,0 0,0 0,0 z"
             style="fill:#000000;fill-opacity:1;fill-rule:nonzero;stroke:none"
             id="path706" />
        </g>
        <g
           id="g708"
           transform="translate(269.76001,241.11999)">
          <path
             d="M 0,0 C 0,-1.12 -0.64,-1.76 -1.92,-1.76 -3.2,-1.76 -4,-1.12 -4,0 c 0,0.8 0.48,1.12 1.76,1.44 l 0.8,0.16 c 0.64,0.16 0.8,0.48 0.8,0.8 0,0.48 -0.48,0.8 -1.28,0.8 C -2.4,3.2 -2.72,3.04 -3.04,2.88 -3.2,2.72 -3.2,2.56 -3.2,2.24 H -4 C -4,3.36 -3.36,4 -1.92,4 -0.48,4 0.16,3.36 0.16,2.4 0.16,1.6 -0.16,1.12 -1.28,0.8 l -0.8,-0.16 c -0.8,-0.16 -1.12,-0.32 -1.12,-0.8 0,-0.48 0.48,-0.8 1.28,-0.8 0.64,0 1.12,0.32 1.12,0.96 z"
             style="fill:#000000;fill-opacity:1;fill-rule:nonzero;stroke:none"
             id="path710" />
        </g>
        <g
           id="g712"
           transform="translate(274.88,241.11999)">
          <path
             d="m 0,0 c 0,-1.12 -0.48,-1.76 -1.92,-1.76 -1.28,0 -1.92,0.64 -1.92,1.76 0,0.8 0.32,1.12 1.6,1.44 l 0.8,0.16 c 0.64,0.16 0.96,0.48 0.96,0.8 0,0.48 -0.64,0.8 -1.44,0.8 -0.48,0 -0.8,-0.16 -1.12,-0.32 0,-0.16 -0.16,-0.32 -0.16,-0.64 H -4 C -4,3.36 -3.36,4 -1.92,4 -0.48,4 0.32,3.36 0.32,2.4 0.32,1.6 -0.16,1.12 -1.12,0.8 L -2.08,0.64 c -0.64,-0.16 -0.96,-0.32 -0.96,-0.8 0,-0.48 0.48,-0.8 1.12,-0.8 0.8,0 1.12,0.32 1.12,0.96 z"
             style="fill:#000000;fill-opacity:1;fill-rule:nonzero;stroke:none"
             id="path714" />
        </g>
        <g
           id="g716"
           transform="translate(278.56,239.36)">
          <path
             d="M 0,0 C -1.6,0 -2.4,1.12 -2.4,2.88 -2.4,4.8 -1.6,5.76 0,5.76 1.6,5.76 2.4,4.8 2.4,3.04 2.4,1.12 1.6,0 0,0 Z M 0,0.8 C 0.96,0.8 1.6,1.6 1.6,2.88 1.6,4.16 0.96,4.96 0,4.96 -0.96,4.96 -1.6,4.16 -1.6,2.88 -1.6,1.6 -0.96,0.8 0,0.8 Z"
             style="fill:#000000;fill-opacity:1;fill-rule:nonzero;stroke:none"
             id="path718" />
        </g>
        <g
           id="g720"
           transform="translate(291.51999,238.24)">
          <path
             d="m 0,0 c 0,-1.28 0.64,-2.4 1.92,-3.04 0.16,-0.16 0.16,-0.16 0.16,-0.32 0,-0.16 0,-0.16 -0.16,-0.16 C 0,-4.48 0,-6.08 0,-6.4 v -6.08 c 0,-1.44 -0.96,-2.56 -2.24,-3.04 -0.32,-0.16 -0.32,-0.16 -0.48,-0.16 -0.16,0 -0.16,0 -0.16,0.16 0,0.16 0,0.16 0,0.32 0.48,0.16 1.76,0.8 2.08,2.4 0,0 0,0.16 0,0.8 v 5.28 c 0,0.48 0,1.28 0.64,2.08 0.32,0.48 0.96,0.96 1.6,1.28 -1.92,0.96 -2.24,2.56 -2.24,3.04 V 5.6 c 0,0.64 0,1.28 -0.64,1.92 -0.48,0.64 -0.96,0.96 -1.44,1.12 0,0 0,0 0,0.16 0,0.16 0,0.16 0.16,0.16 0.16,0 0.16,0 0.48,0 C -1.28,8.48 -0.32,7.68 0,6.4 0,6.24 0,6.08 0,5.44 Z"
             style="fill:#0000ff;fill-opacity:1;fill-rule:nonzero;stroke:none"
             id="path722" />
        </g>
        <g
           id="g724"
           transform="translate(300.32001,234.24)">
          <path
             d="m 0,0 c 0,-0.48 -0.16,-0.8 -0.32,-0.96 -0.32,-0.48 -0.8,-0.64 -1.44,-0.64 -1.28,0 -2.08,0.96 -2.08,2.56 0,1.6 0.8,2.4 2.08,2.4 1.12,0 1.76,-0.64 1.92,-1.76 h -0.8 c -0.16,0.8 -0.48,1.12 -1.12,1.12 -0.96,0 -1.44,-0.64 -1.44,-1.76 0,-1.28 0.48,-1.92 1.44,-1.92 0.64,0 0.96,0.32 1.12,0.96 z"
             style="fill:#0000ff;fill-opacity:1;fill-rule:nonzero;stroke:none"
             id="path726" />
        </g>
        <g
           id="g728"
           transform="translate(301.28,232.8)">
          <path
             d="M 0,0 V 4.64 H 0.8 V 2.24 C 0.8,1.44 0.96,1.12 1.28,0.8 1.44,0.64 1.76,0.64 2.24,0.48 v -0.64 c -0.16,0 -0.32,0 -0.32,0 C 1.44,-0.16 0.96,0 0.64,0.8 V 0 Z"
             style="fill:#0000ff;fill-opacity:1;fill-rule:nonzero;stroke:none"
             id="path730" />
        </g>
        <g
           id="g732"
           transform="translate(306.07999,232.64)">
          <path
             d="m 0,0 c -1.28,0 -2.08,0.8 -2.08,2.4 0,1.76 0.8,2.56 2.08,2.56 1.28,0 2.08,-0.8 2.08,-2.4 C 2.08,0.8 1.44,0 0,0 Z m 0,0.64 c 0.8,0 1.44,0.64 1.44,1.92 C 1.44,3.68 0.8,4.32 0,4.32 -0.8,4.32 -1.44,3.68 -1.44,2.4 -1.44,1.28 -0.8,0.64 0,0.64 Z"
             style="fill:#0000ff;fill-opacity:1;fill-rule:nonzero;stroke:none"
             id="path734" />
        </g>
        <g
           id="g736"
           transform="translate(312.64001,233.92)">
          <path
             d="m 0,0 c 0,-0.8 -0.64,-1.28 -1.76,-1.28 -1.12,0 -1.76,0.48 -1.76,1.28 0,0.8 0.32,1.12 1.44,1.44 l 0.8,0.16 c 0.48,0.16 0.64,0.32 0.64,0.64 0,0.48 -0.48,0.8 -1.12,0.8 -0.32,0 -0.64,0 -0.8,-0.32 C -2.72,2.56 -2.72,2.4 -2.88,2.08 h -0.8 c 0.16,1.12 0.64,1.6 1.92,1.6 1.12,0 1.92,-0.48 1.92,-1.44 0,-0.64 -0.48,-1.12 -1.28,-1.28 L -1.92,0.8 C -2.4,0.64 -2.72,0.32 -2.72,0 c 0,-0.48 0.32,-0.64 0.96,-0.64 0.64,0 0.96,0.16 0.96,0.64 z"
             style="fill:#0000ff;fill-opacity:1;fill-rule:nonzero;stroke:none"
             id="path738" />
        </g>
        <g
           id="g740"
           transform="translate(317.12,233.92)">
          <path
             d="m 0,0 c 0,-0.8 -0.64,-1.28 -1.76,-1.28 -0.96,0 -1.76,0.48 -1.76,1.28 0,0.8 0.48,1.12 1.6,1.44 l 0.64,0.16 c 0.48,0.16 0.64,0.32 0.64,0.64 0,0.48 -0.32,0.8 -0.96,0.8 -0.48,0 -0.8,0 -0.96,-0.32 C -2.72,2.56 -2.72,2.4 -2.72,2.08 h -0.8 c 0,1.12 0.64,1.6 1.76,1.6 1.28,0 1.92,-0.48 1.92,-1.44 0,-0.64 -0.32,-1.12 -1.28,-1.28 L -1.76,0.8 C -2.4,0.64 -2.72,0.32 -2.72,0 c 0,-0.48 0.48,-0.64 0.96,-0.64 0.64,0 0.96,0.16 0.96,0.64 z"
             style="fill:#0000ff;fill-opacity:1;fill-rule:nonzero;stroke:none"
             id="path742" />
        </g>
      </g>
    </g>
    <g
       id="g744">
      <path
         d="m 318.07999,234.56 h 2.24002 v 0.8 h -2.24002 z"
         style="fill:#0000ff;fill-opacity:1;fill-rule:nonzero;stroke:none"
         id="path746" />
    </g>
    <g
       id="g748">
      <g
         id="g750"
         clip-path="url(#clipPath754)">
        <g
           id="g756"
           transform="translate(323.04001,232.64)">
          <path
             d="M 0,0 H -0.8 V -1.28 H -1.44 V 0 h -0.8 v 0.64 h 0.8 v 3.68 c 0,0.48 0.32,0.64 0.8,0.64 0.16,0 0.32,0 0.64,0 L 0,4.32 c -0.16,0 -0.16,0.16 -0.32,0.16 C -0.64,4.48 -0.8,4.32 -0.8,4 V 0.64 H 0 Z"
             style="fill:#0000ff;fill-opacity:1;fill-rule:nonzero;stroke:none"
             id="path758" />
        </g>
        <g
           id="g760"
           transform="translate(323.84,232.8)">
          <path
             d="M 0,0 V 4.64 H 0.8 V 2.24 C 0.8,1.44 0.96,1.12 1.28,0.8 1.6,0.64 1.76,0.64 2.24,0.48 v -0.64 c -0.16,0 -0.16,0 -0.32,0 C 1.44,-0.16 1.12,0 0.64,0.8 V 0 Z"
             style="fill:#0000ff;fill-opacity:1;fill-rule:nonzero;stroke:none"
             id="path762" />
        </g>
        <g
           id="g764"
           transform="translate(330.88,235.36)">
          <path
             d="m 0,0 c 0,-0.64 0,-1.12 -0.16,-1.6 -0.32,-0.8 -1.12,-1.12 -1.92,-1.12 -1.44,0 -2.24,0.96 -2.24,2.56 0,1.6 0.8,2.4 2.24,2.4 0.96,0 1.76,-0.48 1.92,-1.6 H -0.8 C -1.12,1.28 -1.44,1.6 -2.08,1.6 -2.56,1.6 -3.04,1.44 -3.2,1.12 -3.36,0.8 -3.52,0.48 -3.52,0 Z m -3.52,-0.64 c 0.16,-0.96 0.64,-1.44 1.44,-1.44 0.64,0 1.28,0.64 1.28,1.44 0,0 0,0 0,0 z"
             style="fill:#0000ff;fill-opacity:1;fill-rule:nonzero;stroke:none"
             id="path766" />
        </g>
        <g
           id="g768"
           transform="translate(335.84,235.36)">
          <path
             d="m 0,0 c 0,-0.64 0,-1.12 -0.16,-1.6 -0.32,-0.8 -0.96,-1.12 -1.92,-1.12 -1.28,0 -2.08,0.96 -2.08,2.56 0,1.6 0.8,2.4 2.08,2.4 1.12,0 1.92,-0.48 2.08,-1.6 H -0.8 C -0.96,1.28 -1.44,1.6 -2.08,1.6 -2.56,1.6 -2.88,1.44 -3.2,1.12 -3.36,0.8 -3.36,0.48 -3.36,0 Z m -3.36,-0.64 c 0,-0.96 0.48,-1.44 1.28,-1.44 0.8,0 1.28,0.64 1.28,1.44 0,0 0,0 0,0 z"
             style="fill:#0000ff;fill-opacity:1;fill-rule:nonzero;stroke:none"
             id="path770" />
        </g>
        <g
           id="g772"
           transform="translate(343.04001,234.24)">
          <path
             d="m 0,0 c 0,-0.48 -0.16,-0.8 -0.32,-0.96 -0.32,-0.48 -0.8,-0.64 -1.44,-0.64 -1.28,0 -2.08,0.96 -2.08,2.56 0,1.6 0.8,2.4 2.08,2.4 1.12,0 1.76,-0.64 1.92,-1.76 h -0.8 c -0.16,0.8 -0.48,1.12 -1.12,1.12 -0.96,0 -1.44,-0.64 -1.44,-1.76 0,-1.28 0.48,-1.92 1.44,-1.92 0.64,0 0.96,0.32 1.12,0.96 z"
             style="fill:#0000ff;fill-opacity:1;fill-rule:nonzero;stroke:none"
             id="path774" />
        </g>
        <g
           id="g776"
           transform="translate(345.76001,232.64)">
          <path
             d="m 0,0 c -1.28,0 -2.08,0.8 -2.08,2.4 0,1.76 0.8,2.56 2.08,2.56 1.44,0 2.24,-0.8 2.24,-2.4 C 2.24,0.8 1.44,0 0,0 Z m 0,0.64 c 0.96,0 1.44,0.64 1.44,1.92 C 1.44,3.68 0.96,4.32 0,4.32 -0.8,4.32 -1.28,3.68 -1.28,2.4 -1.28,1.28 -0.8,0.64 0,0.64 Z"
             style="fill:#0000ff;fill-opacity:1;fill-rule:nonzero;stroke:none"
             id="path778" />
        </g>
        <g
           id="g780"
           transform="translate(348.95999,232.8)">
          <path
             d="M 0,0 V 4.64 H 0.8 V 2.08 c 0,-1.12 0.48,-1.76 1.28,-1.76 0.64,0 0.96,0.48 0.96,0.96 v 3.36 h 0.8 V 0.96 C 3.84,0.16 3.2,-0.32 2.24,-0.32 1.6,-0.32 1.12,0 0.64,0.64 V 0 Z"
             style="fill:#0000ff;fill-opacity:1;fill-rule:nonzero;stroke:none"
             id="path782" />
        </g>
        <g
           id="g784"
           transform="translate(357.28,233.92)">
          <path
             d="m 0,0 c 0,-0.8 -0.48,-1.28 -1.6,-1.28 -1.12,0 -1.76,0.48 -1.76,1.28 0,0.8 0.32,1.12 1.44,1.44 l 0.64,0.16 c 0.48,0.16 0.8,0.32 0.8,0.64 0,0.48 -0.48,0.8 -1.12,0.8 -0.48,0 -0.8,0 -0.96,-0.32 C -2.72,2.56 -2.72,2.4 -2.72,2.08 h -0.8 c 0,1.12 0.64,1.6 1.92,1.6 1.12,0 1.92,-0.48 1.92,-1.44 0,-0.64 -0.48,-1.12 -1.44,-1.28 L -1.76,0.8 C -2.4,0.64 -2.56,0.32 -2.56,0 c 0,-0.48 0.32,-0.64 0.96,-0.64 0.48,0 0.8,0.16 0.8,0.64 z"
             style="fill:#0000ff;fill-opacity:1;fill-rule:nonzero;stroke:none"
             id="path786" />
        </g>
        <g
           id="g788"
           transform="translate(360.32001,232.64)">
          <path
             d="M 0,0 H -0.8 V -1.28 H -1.6 V 0 h -0.64 v 0.64 h 0.64 v 3.68 c 0,0.48 0.32,0.64 0.96,0.64 0.16,0 0.32,0 0.64,0 L 0,4.32 c -0.16,0 -0.32,0.16 -0.48,0.16 C -0.8,4.48 -0.8,4.32 -0.8,4 V 0.64 H 0 Z"
             style="fill:#0000ff;fill-opacity:1;fill-rule:nonzero;stroke:none"
             id="path790" />
        </g>
        <g
           id="g792"
           transform="translate(361.12,232.8)">
          <path
             d="M 0,0 V 4.64 H 0.64 V 2.24 C 0.64,1.44 0.96,1.12 1.28,0.8 1.44,0.64 1.76,0.64 2.24,0.48 v -0.64 c -0.16,0 -0.32,0 -0.32,0 C 1.44,-0.16 0.96,0 0.64,0.8 V 0 Z"
             style="fill:#0000ff;fill-opacity:1;fill-rule:nonzero;stroke:none"
             id="path794" />
        </g>
        <g
           id="g796"
           transform="translate(368.16,237.11999)">
          <path
             d="m 0,0 c 0,0 0,0 -0.16,0 -0.16,0 -0.32,-0.16 -0.32,-0.48 v -2.88 c 0,-0.8 -0.64,-1.12 -1.92,-1.12 -0.64,0 -1.28,0.16 -1.6,0.48 -0.16,0.16 -0.32,0.48 -0.32,0.96 h 0.8 c 0,-0.64 0.48,-0.8 1.12,-0.8 0.8,0 1.12,0.16 1.12,0.64 v 0.16 c 0,0.32 -0.16,0.48 -0.8,0.64 -1.12,0.16 -1.28,0.16 -1.6,0.32 -0.48,0.16 -0.8,0.64 -0.8,1.28 0,0.8 0.64,1.28 1.6,1.28 0.64,0 1.12,-0.16 1.6,-0.64 0.16,0.48 0.32,0.64 0.8,0.64 0.16,0 0.32,0 0.48,0 z m -1.28,-1.12 c 0,0.16 0,0.32 -0.32,0.64 C -1.92,-0.16 -2.24,0 -2.72,0 c -0.64,0 -0.96,-0.32 -0.96,-0.8 0,-0.64 0.32,-0.8 1.12,-0.96 0.8,-0.16 0.96,-0.16 1.28,-0.32 z"
             style="fill:#0000ff;fill-opacity:1;fill-rule:nonzero;stroke:none"
             id="path798" />
        </g>
        <g
           id="g800"
           transform="translate(369.76001,232.8)">
          <path
             d="M 0,0 H -0.8 V 4.64 H 0 Z m 0,-1.92 h -0.8 v 0.96 H 0 Z"
             style="fill:#0000ff;fill-opacity:1;fill-rule:nonzero;stroke:none"
             id="path802" />
        </g>
        <g
           id="g804"
           transform="translate(371.04001,232.8)">
          <path
             d="M 0,0 V 4.64 H 0.8 V 2.08 C 0.64,0.96 1.12,0.32 2.08,0.32 c 0.48,0 0.96,0.48 0.96,0.96 v 3.36 h 0.8 V 0.96 c 0,-0.8 -0.64,-1.28 -1.6,-1.28 -0.8,0 -1.28,0.32 -1.6,0.96 L 0.64,0 Z"
             style="fill:#0000ff;fill-opacity:1;fill-rule:nonzero;stroke:none"
             id="path806" />
        </g>
        <g
           id="g808"
           transform="translate(377.76001,232.64)">
          <path
             d="M 0,0 H -0.8 V -1.28 H -1.6 V 0 h -0.64 v 0.64 h 0.64 v 3.68 c 0,0.48 0.32,0.64 0.96,0.64 0.16,0 0.32,0 0.64,0 L 0,4.32 c -0.16,0 -0.16,0.16 -0.32,0.16 C -0.64,4.48 -0.8,4.32 -0.8,4 V 0.64 H 0 Z"
             style="fill:#0000ff;fill-opacity:1;fill-rule:nonzero;stroke:none"
             id="path810" />
        </g>
        <g
           id="g812"
           transform="translate(381.92001,233.92)">
          <path
             d="m 0,0 c 0,-0.8 -0.64,-1.28 -1.76,-1.28 -1.12,0 -1.76,0.48 -1.76,1.28 0,0.8 0.32,1.12 1.44,1.44 l 0.8,0.16 c 0.48,0.16 0.64,0.32 0.64,0.64 0,0.48 -0.48,0.8 -1.12,0.8 -0.32,0 -0.64,0 -0.8,-0.32 C -2.72,2.56 -2.88,2.4 -2.88,2.08 h -0.8 c 0.16,1.12 0.64,1.6 1.92,1.6 1.12,0 1.92,-0.48 1.92,-1.44 0,-0.64 -0.48,-1.12 -1.28,-1.28 L -1.92,0.8 C -2.56,0.64 -2.72,0.32 -2.72,0 c 0,-0.48 0.32,-0.64 0.96,-0.64 0.64,0 0.96,0.16 0.96,0.64 z"
             style="fill:#0000ff;fill-opacity:1;fill-rule:nonzero;stroke:none"
             id="path814" />
        </g>
      </g>
    </g>
  </g>
</svg>
